<svg xmlns="http://www.w3.org/2000/svg" width="56" height="56" fill="none"><g fill="#FFEAEC" clip-path="url(#a)"><path d="M50.372 48.535 47.15 12.218a1.38 1.38 0 0 0-1.392-1.264h-6.792C38.954 4.914 34.039 0 28 0c-6.04 0-10.954 4.915-10.966 10.954h-6.793c-.718 0-1.321.545-1.39 1.264L5.627 48.535v.127c0 4.046 3.72 7.338 8.288 7.338h28.168c4.567 0 8.288-3.292 8.288-7.338v-.127ZM28 2.782c4.51 0 8.172 3.663 8.184 8.172H19.816c.012-4.509 3.675-8.172 8.184-8.172Zm14.084 50.424H13.916c-3.014 0-5.472-2.005-5.506-4.497l3.106-34.973h5.518v4.88c0 .765.626 1.392 1.391 1.392s1.391-.627 1.391-1.392v-4.88h16.368v4.88c0 .765.626 1.392 1.39 1.392.766 0 1.392-.627 1.392-1.392v-4.88h5.517L47.59 48.72c-.035 2.481-2.492 4.486-5.506 4.486Z"/><path d="m33.784 28.956-8.207 8.207-3.35-3.35a1.392 1.392 0 1 0-1.97 1.97l4.335 4.336a1.396 1.396 0 0 0 1.97 0l9.193-9.192a1.392 1.392 0 0 0 0-1.97 1.414 1.414 0 0 0-1.97 0Z"/></g><defs><clipPath id="a"><path fill="#fff" d="M0 0h56v56H0z"/></clipPath></defs></svg>