<svg width="24" height="25" viewBox="0 0 24 25" fill="none" xmlns="http://www.w3.org/2000/svg">
<path d="M0 1.52857C0 1.25578 0.108374 0.994156 0.301282 0.801261C0.494191 0.608367 0.75583 0.5 1.02864 0.5H1.79395C3.0969 0.5 3.87867 1.37634 4.32442 2.19097C4.62204 2.73406 4.83737 3.36354 5.00606 3.93406C5.05169 3.93046 5.09745 3.92863 5.14322 3.92857H22.2845C23.4229 3.92857 24.2458 5.01749 23.9331 6.11326L21.426 14.9027C21.2012 15.6911 20.7256 16.3848 20.0713 16.8787C19.4169 17.3726 18.6195 17.6399 17.7996 17.6401H9.64182C8.81546 17.6401 8.01197 17.3688 7.35483 16.8678C6.6977 16.3668 6.22329 15.6639 6.00453 14.8671L4.96217 11.0655L3.23405 5.23966L3.23268 5.22869C3.01872 4.45109 2.81848 3.72286 2.51949 3.17977C2.23284 2.65177 2.00243 2.55714 1.79533 2.55714H1.02864C0.75583 2.55714 0.494191 2.44878 0.301282 2.25588C0.108374 2.06299 0 1.80137 0 1.52857ZM6.95774 10.5663L7.98776 14.3226C8.19349 15.0659 8.86965 15.583 9.64182 15.583H17.7996C18.1723 15.583 18.5348 15.4615 18.8323 15.2371C19.1297 15.0127 19.346 14.6974 19.4482 14.3391L21.8306 5.98571H5.60268L6.93854 10.4936L6.95774 10.5663Z" fill="white"/>
<path d="M11.658 21.757C11.658 22.4845 11.369 23.1821 10.8546 23.6965C10.3401 24.2109 9.64243 24.4999 8.91492 24.4999C8.18742 24.4999 7.48972 24.2109 6.9753 23.6965C6.46087 23.1821 6.17188 22.4845 6.17188 21.757C6.17188 21.0296 6.46087 20.3319 6.9753 19.8175C7.48972 19.3031 8.18742 19.0142 8.91492 19.0142C9.64243 19.0142 10.3401 19.3031 10.8546 19.8175C11.369 20.3319 11.658 21.0296 11.658 21.757ZM9.60069 21.757C9.60069 21.5752 9.52844 21.4007 9.39983 21.2721C9.27123 21.1435 9.0968 21.0713 8.91492 21.0713C8.73305 21.0713 8.55862 21.1435 8.43002 21.2721C8.30141 21.4007 8.22916 21.5752 8.22916 21.757C8.22916 21.9389 8.30141 22.1133 8.43002 22.2419C8.55862 22.3705 8.73305 22.4427 8.91492 22.4427C9.0968 22.4427 9.27123 22.3705 9.39983 22.2419C9.52844 22.1133 9.60069 21.9389 9.60069 21.757Z" fill="white"/>
<path d="M21.2581 21.757C21.2581 22.4845 20.9691 23.1821 20.4546 23.6965C19.9402 24.2109 19.2425 24.4999 18.515 24.4999C17.7875 24.4999 17.0898 24.2109 16.5754 23.6965C16.061 23.1821 15.772 22.4845 15.772 21.757C15.772 21.0296 16.061 20.3319 16.5754 19.8175C17.0898 19.3031 17.7875 19.0142 18.515 19.0142C19.2425 19.0142 19.9402 19.3031 20.4546 19.8175C20.9691 20.3319 21.2581 21.0296 21.2581 21.757ZM19.2008 21.757C19.2008 21.5752 19.1285 21.4007 18.9999 21.2721C18.8713 21.1435 18.6969 21.0713 18.515 21.0713C18.3331 21.0713 18.1587 21.1435 18.0301 21.2721C17.9015 21.4007 17.8293 21.5752 17.8293 21.757C17.8293 21.9389 17.9015 22.1133 18.0301 22.2419C18.1587 22.3705 18.3331 22.4427 18.515 22.4427C18.6969 22.4427 18.8713 22.3705 18.9999 22.2419C19.1285 22.1133 19.2008 21.9389 19.2008 21.757Z" fill="white"/>
</svg>
