<svg xmlns="http://www.w3.org/2000/svg" width="56" height="56" fill="none"><path stroke="#FFEAEC" stroke-linecap="round" stroke-linejoin="round" stroke-width="3" d="M20.234 33.436c0 3.01 2.31 5.437 5.18 5.437h5.857c2.497 0 4.527-2.123 4.527-4.737 0-2.846-1.237-3.85-3.08-4.503l-9.404-3.267c-1.843-.653-3.08-1.656-3.08-4.503 0-2.613 2.03-4.737 4.527-4.737h5.857c2.87 0 5.18 2.427 5.18 5.437M28 14v28"/><path stroke="#FFEAEC" stroke-linecap="round" stroke-linejoin="round" stroke-width="3" d="M28 51.333c12.887 0 23.333-10.446 23.333-23.333C51.333 15.113 40.887 4.667 28 4.667 15.113 4.667 4.667 15.113 4.667 28c0 12.887 10.446 23.333 23.333 23.333Z"/></svg>