<svg width="25" height="24" viewBox="0 0 25 24" fill="none" xmlns="http://www.w3.org/2000/svg">
<path fill-rule="evenodd" clip-rule="evenodd" d="M9.42906 4.47033C8.15784 4.32825 6.84193 4.32825 5.57071 4.47033C5.26182 4.50485 5.01823 4.74944 4.98348 5.0465C4.83168 6.34444 4.83168 7.65565 4.98348 8.95359C5.01823 9.25065 5.26182 9.49524 5.57071 9.52976C6.84193 9.67184 8.15784 9.67184 9.42906 9.52976C9.73795 9.49524 9.98154 9.25065 10.0163 8.95359C10.1681 7.65565 10.1681 6.34444 10.0163 5.0465C9.98154 4.74944 9.73795 4.50485 9.42906 4.47033ZM5.4041 2.97961C6.78605 2.82516 8.21372 2.82516 9.59567 2.97961C10.5865 3.09035 11.389 3.87034 11.5061 4.87225C11.6715 6.28596 11.6715 7.71413 11.5061 9.12784C11.389 10.1298 10.5865 10.9097 9.59567 11.0205C8.21372 11.1749 6.78605 11.1749 5.40411 11.0205C4.41327 10.9097 3.61082 10.1298 3.49364 9.12784C3.32829 7.71413 3.32829 6.28596 3.49364 4.87225C3.61082 3.87034 4.41326 3.09035 5.4041 2.97961Z" fill="white"/>
<path fill-rule="evenodd" clip-rule="evenodd" d="M9.42906 14.4703C8.15784 14.3282 6.84193 14.3282 5.57071 14.4703C5.26182 14.5049 5.01823 14.7494 4.98348 15.0465C4.83168 16.3444 4.83168 17.6557 4.98348 18.9536C5.01823 19.2506 5.26182 19.4952 5.57071 19.5298C6.84193 19.6718 8.15784 19.6718 9.42906 19.5298C9.73795 19.4952 9.98154 19.2506 10.0163 18.9536C10.1681 17.6556 10.1681 16.3444 10.0163 15.0465C9.98154 14.7494 9.73795 14.5049 9.42906 14.4703ZM5.4041 12.9796C6.78605 12.8252 8.21372 12.8252 9.59567 12.9796C10.5865 13.0904 11.389 13.8703 11.5061 14.8722C11.6715 16.286 11.6715 17.7141 11.5061 19.1278C11.389 20.1298 10.5865 20.9097 9.59567 21.0205C8.21372 21.1749 6.78605 21.1749 5.40411 21.0205C4.41327 20.9097 3.61082 20.1298 3.49364 19.1278C3.32829 17.7141 3.32829 16.286 3.49364 14.8722C3.61082 13.8703 4.41326 13.0904 5.4041 12.9796Z" fill="white"/>
<path fill-rule="evenodd" clip-rule="evenodd" d="M19.4291 4.47033C18.1578 4.32825 16.8419 4.32825 15.5707 4.47033C15.2618 4.50485 15.0182 4.74944 14.9835 5.0465C14.8317 6.34444 14.8317 7.65565 14.9835 8.95359C15.0182 9.25065 15.2618 9.49524 15.5707 9.52976C16.8419 9.67184 18.1578 9.67184 19.4291 9.52976C19.7379 9.49524 19.9815 9.25065 20.0163 8.95359C20.1681 7.65565 20.1681 6.34444 20.0163 5.0465C19.9815 4.74944 19.7379 4.50485 19.4291 4.47033ZM15.4041 2.97961C16.7861 2.82516 18.2137 2.82516 19.5957 2.97961C20.5865 3.09035 21.389 3.87034 21.5061 4.87225C21.6715 6.28596 21.6715 7.71413 21.5061 9.12784C21.389 10.1298 20.5865 10.9097 19.5957 11.0205C18.2137 11.1749 16.7861 11.1749 15.4041 11.0205C14.4133 10.9097 13.6108 10.1298 13.4936 9.12784C13.3283 7.71413 13.3283 6.28596 13.4936 4.87225C13.6108 3.87034 14.4133 3.09035 15.4041 2.97961Z" fill="white"/>
<path fill-rule="evenodd" clip-rule="evenodd" d="M19.4291 14.4703C18.1578 14.3282 16.8419 14.3282 15.5707 14.4703C15.2618 14.5049 15.0182 14.7494 14.9835 15.0465C14.8317 16.3444 14.8317 17.6557 14.9835 18.9536C15.0182 19.2506 15.2618 19.4952 15.5707 19.5298C16.8419 19.6718 18.1578 19.6718 19.4291 19.5298C19.7379 19.4952 19.9815 19.2506 20.0163 18.9536C20.1681 17.6556 20.1681 16.3444 20.0163 15.0465C19.9815 14.7494 19.7379 14.5049 19.4291 14.4703ZM15.4041 12.9796C16.7861 12.8252 18.2137 12.8252 19.5957 12.9796C20.5865 13.0904 21.389 13.8703 21.5061 14.8722C21.6715 16.286 21.6715 17.7141 21.5061 19.1278C21.389 20.1298 20.5865 20.9097 19.5957 21.0205C18.2137 21.1749 16.7861 21.1749 15.4041 21.0205C14.4133 20.9097 13.6108 20.1298 13.4936 19.1278C13.3283 17.7141 13.3283 16.286 13.4936 14.8722C13.6108 13.8703 14.4133 13.0904 15.4041 12.9796Z" fill="white"/>
</svg>
