<svg width="56" height="56" viewBox="0 0 56 56" fill="none" xmlns="http://www.w3.org/2000/svg">
<path d="M20.2344 33.4363C20.2344 36.4463 22.5444 38.873 25.4144 38.873H31.271C33.7677 38.873 35.7977 36.7497 35.7977 34.1363C35.7977 31.2897 34.561 30.2863 32.7177 29.633L23.3144 26.3663C21.471 25.713 20.2344 24.7097 20.2344 21.863C20.2344 19.2497 22.2644 17.1263 24.761 17.1263H30.6177C33.4877 17.1263 35.7977 19.553 35.7977 22.563" stroke="#FAE1E9" stroke-width="3" stroke-linecap="round" stroke-linejoin="round"/>
<path d="M28 14V42" stroke="#FAE1E9" stroke-width="3" stroke-linecap="round" stroke-linejoin="round"/>
<path d="M28.0001 51.3333C40.8867 51.3333 51.3334 40.8866 51.3334 28C51.3334 15.1133 40.8867 4.66663 28.0001 4.66663C15.1134 4.66663 4.66675 15.1133 4.66675 28C4.66675 40.8866 15.1134 51.3333 28.0001 51.3333Z" stroke="#FAE1E9" stroke-width="3" stroke-linecap="round" stroke-linejoin="round"/>
</svg>
