<svg width="24" height="25" viewBox="0 0 24 25" fill="none" xmlns="http://www.w3.org/2000/svg">
<path d="M16.5 3.32495C14.76 3.32495 13.09 4.13495 12 5.41495C10.91 4.13495 9.24 3.32495 7.5 3.32495C4.42 3.32495 2 5.74495 2 8.82495C2 12.605 5.4 15.685 10.55 20.365L12 21.675L13.45 20.355C18.6 15.685 22 12.605 22 8.82495C22 5.74495 19.58 3.32495 16.5 3.32495ZM12.1 18.875L12 18.975L11.9 18.875C7.14 14.565 4 11.715 4 8.82495C4 6.82495 5.5 5.32495 7.5 5.32495C9.04 5.32495 10.54 6.31495 11.07 7.68495H12.94C13.46 6.31495 14.96 5.32495 16.5 5.32495C18.5 5.32495 20 6.82495 20 8.82495C20 11.715 16.86 14.565 12.1 18.875Z" fill="white"/>
</svg>
