<svg width="12" height="14" viewBox="0 0 12 14" fill="none" xmlns="http://www.w3.org/2000/svg">
<path fill-rule="evenodd" clip-rule="evenodd" d="M6.16667 4.66663C5.52333 4.66663 5 5.18996 5 5.83396C5 6.47729 5.52333 6.99996 6.16667 6.99996C6.81 6.99996 7.33333 6.47729 7.33333 5.83396C7.33333 5.18996 6.81 4.66663 6.16667 4.66663ZM6.16667 7.99996C4.972 7.99996 4 7.02863 4 5.83396C4 4.63863 4.972 3.66663 6.16667 3.66663C7.36133 3.66663 8.33333 4.63863 8.33333 5.83396C8.33333 7.02863 7.36133 7.99996 6.16667 7.99996Z" fill="white"/>
<mask id="mask0_457_658" style="mask-type:luminance" maskUnits="userSpaceOnUse" x="0" y="0" width="12" height="14">
<path fill-rule="evenodd" clip-rule="evenodd" d="M0.666504 0.333313H11.6662V13.3333H0.666504V0.333313Z" fill="white"/>
</mask>
<g mask="url(#mask0_457_658)">
<path fill-rule="evenodd" clip-rule="evenodd" d="M6.16602 1.33331C3.68468 1.33331 1.66602 3.37131 1.66602 5.87531C1.66602 9.06131 5.41535 12.1653 6.16602 12.3306C6.91668 12.1646 10.666 9.06065 10.666 5.87531C10.666 3.37131 8.64735 1.33331 6.16602 1.33331ZM6.16602 13.3333C4.97002 13.3333 0.666016 9.63198 0.666016 5.87531C0.666016 2.81931 3.13335 0.333313 6.16602 0.333313C9.19868 0.333313 11.666 2.81931 11.666 5.87531C11.666 9.63198 7.36202 13.3333 6.16602 13.3333Z" fill="white"/>
</g>
</svg>
