<svg width="192" height="58" viewBox="0 0 192 58" fill="none" xmlns="http://www.w3.org/2000/svg">
<path d="M186.53 17.3631L183.197 17.7339C183.103 17.3906 182.938 17.0679 182.702 16.7658C182.473 16.4638 182.163 16.22 181.773 16.0347C181.382 15.8493 180.904 15.7566 180.338 15.7566C179.577 15.7566 178.938 15.9248 178.419 16.2612C177.907 16.5976 177.655 17.0336 177.662 17.5691C177.655 18.0291 177.82 18.4033 178.157 18.6916C178.5 18.98 179.066 19.2168 179.854 19.4022L182.5 19.9789C183.968 20.3016 185.059 20.8131 185.773 21.5134C186.493 22.2136 186.857 23.1302 186.864 24.263C186.857 25.2585 186.571 26.1373 186.005 26.8994C185.446 27.6546 184.668 28.245 183.672 28.6707C182.675 29.0963 181.53 29.3092 180.237 29.3092C178.338 29.3092 176.81 28.9041 175.652 28.094C174.493 27.277 173.803 26.1407 173.581 24.6852L177.146 24.3351C177.308 25.0491 177.652 25.5881 178.177 25.9519C178.702 26.3158 179.386 26.4977 180.227 26.4977C181.096 26.4977 181.793 26.3158 182.318 25.9519C182.85 25.5881 183.116 25.1384 183.116 24.6028C183.116 24.1497 182.944 23.7756 182.601 23.4803C182.264 23.1851 181.739 22.9586 181.025 22.8006L178.379 22.2342C176.891 21.9184 175.79 21.3863 175.076 20.638C174.362 19.8828 174.008 18.9285 174.015 17.7751C174.008 16.8002 174.268 15.9557 174.793 15.2417C175.325 14.5208 176.062 13.9647 177.005 13.5734C177.955 13.1752 179.049 12.9761 180.288 12.9761C182.106 12.9761 183.537 13.3708 184.581 14.1604C185.631 14.9499 186.281 16.0175 186.53 17.3631Z" fill="#FFEAEC"/>
<path d="M173.313 7.90918V10.01C173.313 10.6142 173.199 11.2424 172.97 11.8946C172.748 12.54 172.441 13.1579 172.051 13.7483C171.66 14.3319 171.216 14.8331 170.717 15.2519L169.02 14.1293C169.391 13.5595 169.714 12.945 169.99 12.286C170.266 11.62 170.404 10.8682 170.404 10.0306V7.90918H173.313Z" fill="#FFEAEC"/>
<path d="M155.364 29.0001H151.364L158.646 7.90918H163.273L170.566 29.0001H166.566L161.04 12.2345H160.879L155.364 29.0001ZM155.495 20.7306H166.404V23.7995H155.495V20.7306Z" fill="#FFEAEC"/>
<path d="M134.207 29.0001V7.90918H141.965C143.554 7.90918 144.887 8.19067 145.965 8.75364C147.049 9.31661 147.867 10.1061 148.419 11.1222C148.978 12.1315 149.258 13.3089 149.258 14.6546C149.258 16.0071 148.975 17.1811 148.409 18.1766C147.85 19.1652 147.025 19.9307 145.934 20.4731C144.843 21.0086 143.503 21.2764 141.914 21.2764H136.389V18.1045H141.409C142.338 18.1045 143.099 17.974 143.692 17.7132C144.284 17.4454 144.722 17.0575 145.005 16.5495C145.295 16.0345 145.439 15.4029 145.439 14.6546C145.439 13.9062 145.295 13.2677 145.005 12.7391C144.715 12.2036 144.274 11.7985 143.682 11.5239C143.089 11.2424 142.325 11.1017 141.389 11.1017H137.955V29.0001H134.207ZM144.894 19.4433L150.015 29.0001H145.833L140.803 19.4433H144.894Z" fill="#FFEAEC"/>
<path d="M126.386 7.90918H130.134V21.6883C130.134 23.1987 129.784 24.5272 129.083 25.6737C128.39 26.8203 127.413 27.7162 126.154 28.3616C124.895 29.0001 123.423 29.3193 121.74 29.3193C120.05 29.3193 118.575 29.0001 117.316 28.3616C116.056 27.7162 115.08 26.8203 114.386 25.6737C113.693 24.5272 113.346 23.1987 113.346 21.6883V7.90918H117.093V21.3691C117.093 22.2478 117.282 23.0305 117.659 23.7171C118.043 24.4036 118.582 24.9426 119.275 25.3339C119.969 25.7184 120.79 25.9106 121.74 25.9106C122.689 25.9106 123.511 25.7184 124.205 25.3339C124.905 24.9426 125.444 24.4036 125.821 23.7171C126.198 23.0305 126.386 22.2478 126.386 21.3691V7.90918Z" fill="#FFEAEC"/>
<path d="M94.0959 29.0001V7.90918H97.8434V17.5999H98.0959L106.167 7.90918H110.742L102.742 17.3733L110.813 29.0001H106.308L100.136 19.9582L97.8434 22.7181V29.0001H94.0959Z" fill="#FFEAEC"/>
<path d="M76.1692 29.0001H72.1692L79.452 7.90918H84.0783L91.3712 29.0001H87.3712L81.846 12.2345H81.6843L76.1692 29.0001ZM76.3005 20.7306H87.2096V23.7995H76.3005V20.7306Z" fill="#FFEAEC"/>
<path d="M66.6161 13.7071C66.5218 12.8078 66.1245 12.1075 65.4242 11.6063C64.7306 11.1051 63.8282 10.8545 62.7171 10.8545C61.936 10.8545 61.266 10.9747 60.707 11.215C60.1481 11.4552 59.7205 11.7814 59.4242 12.1933C59.1279 12.6052 58.9764 13.0755 58.9697 13.6042C58.9697 14.0436 59.0673 14.4246 59.2626 14.7473C59.4646 15.07 59.7373 15.3446 60.0808 15.5711C60.4242 15.7908 60.8047 15.9762 61.2222 16.1272C61.6397 16.2783 62.0606 16.4053 62.4848 16.5083L64.4242 17.0026C65.2053 17.188 65.9562 17.4386 66.6767 17.7544C67.404 18.0702 68.0538 18.4684 68.6262 18.949C69.2053 19.4296 69.6633 20.0097 70 20.6894C70.3367 21.3691 70.505 22.1655 70.505 23.0786C70.505 24.3144 70.1952 25.4026 69.5757 26.3432C68.9562 27.2769 68.0606 28.008 66.8888 28.5367C65.7239 29.0585 64.3131 29.3194 62.6565 29.3194C61.0471 29.3194 59.6498 29.0653 58.4646 28.5573C57.2862 28.0492 56.3636 27.3078 55.6969 26.3329C55.037 25.3579 54.6801 24.1702 54.6262 22.7696H58.3131C58.367 23.5043 58.5892 24.1153 58.9798 24.6027C59.3703 25.0902 59.8787 25.4541 60.505 25.6944C61.138 25.9347 61.8451 26.0548 62.6262 26.0548C63.441 26.0548 64.1548 25.9312 64.7676 25.6841C65.3872 25.43 65.872 25.0799 66.2222 24.6336C66.5723 24.1805 66.7508 23.6519 66.7575 23.0477C66.7508 22.4985 66.5926 22.0453 66.2828 21.6883C65.973 21.3244 65.5387 21.0224 64.9798 20.7821C64.4276 20.5349 63.7811 20.3152 63.0404 20.123L60.6868 19.5051C58.9831 19.0588 57.6363 18.3826 56.6464 17.4763C55.6633 16.5632 55.1717 15.3514 55.1717 13.841C55.1717 12.5984 55.5016 11.5102 56.1616 10.5765C56.8282 9.64275 57.734 8.91844 58.8787 8.40352C60.0235 7.88174 61.3198 7.62085 62.7676 7.62085C64.2356 7.62085 65.5218 7.88174 66.6262 8.40352C67.7373 8.91844 68.6094 9.63588 69.2424 10.5559C69.8754 11.469 70.202 12.5194 70.2222 13.7071H66.6161Z" fill="#FFEAEC"/>
<path d="M125.055 41.7826L123.002 42.1533C122.916 41.8855 122.78 41.6307 122.593 41.3886C122.411 41.1466 122.164 40.9484 121.85 40.7939C121.537 40.6394 121.146 40.5622 120.676 40.5622C120.035 40.5622 119.499 40.709 119.07 41.0025C118.641 41.2908 118.426 41.6641 118.426 42.1224C118.426 42.5189 118.57 42.8381 118.858 43.0801C119.146 43.3222 119.61 43.5204 120.252 43.6749L122.1 44.1074C123.171 44.3597 123.969 44.7485 124.494 45.2737C125.02 45.7989 125.282 46.4812 125.282 47.3205C125.282 48.0311 125.08 48.6644 124.676 49.2205C124.277 49.7715 123.719 50.204 123.002 50.5181C122.29 50.8322 121.464 50.9892 120.525 50.9892C119.222 50.9892 118.158 50.706 117.335 50.1396C116.512 49.5681 116.007 48.7571 115.82 47.7067L118.009 47.3668C118.146 47.9487 118.426 48.3889 118.85 48.6876C119.275 48.9811 119.828 49.1278 120.509 49.1278C121.252 49.1278 121.845 48.9708 122.29 48.6567C122.734 48.3374 122.956 47.9487 122.956 47.4904C122.956 47.1197 122.82 46.8081 122.547 46.5558C122.28 46.3035 121.868 46.113 121.312 45.9843L119.343 45.544C118.257 45.2917 117.454 44.8901 116.934 44.3391C116.419 43.7882 116.161 43.0904 116.161 42.246C116.161 41.5457 116.353 40.933 116.737 40.4077C117.121 39.8825 117.651 39.4732 118.328 39.1797C119.004 38.881 119.78 38.7317 120.653 38.7317C121.911 38.7317 122.901 39.0097 123.623 39.5659C124.345 40.1168 124.823 40.8557 125.055 41.7826Z" fill="#EF7FA5"/>
<path d="M114.017 38.8863V40.74H107.661V38.8863H114.017ZM109.365 36.0439H111.631V47.2665C111.631 47.7145 111.696 48.0518 111.828 48.2783C111.959 48.4997 112.128 48.6516 112.335 48.734C112.547 48.8113 112.777 48.8499 113.025 48.8499C113.206 48.8499 113.365 48.837 113.502 48.8113C113.638 48.7855 113.744 48.7649 113.82 48.7495L114.229 50.6572C114.098 50.7087 113.911 50.7602 113.668 50.8117C113.426 50.8683 113.123 50.8992 112.759 50.9044C112.163 50.9147 111.608 50.8066 111.093 50.58C110.578 50.3534 110.161 50.0033 109.843 49.5296C109.525 49.0558 109.365 48.4611 109.365 47.7454V36.0439Z" fill="#EF7FA5"/>
<path d="M101.079 50.9892C99.9329 50.9892 98.9455 50.7395 98.1173 50.24C97.294 49.7354 96.6577 49.0274 96.2082 48.116C95.7637 47.1995 95.5415 46.1259 95.5415 44.8952C95.5415 43.68 95.7637 42.609 96.2082 41.6822C96.6577 40.7553 97.2839 40.0318 98.087 39.5118C98.895 38.9917 99.8395 38.7317 100.92 38.7317C101.577 38.7317 102.213 38.8424 102.829 39.0638C103.446 39.2852 103.999 39.6328 104.488 40.1065C104.978 40.5802 105.365 41.1956 105.648 41.9525C105.93 42.7043 106.072 43.6182 106.072 44.6944V45.5131H96.8218V43.783H103.852C103.852 43.1754 103.731 42.6373 103.488 42.1687C103.246 41.695 102.905 41.3217 102.466 41.0488C102.031 40.7759 101.521 40.6394 100.935 40.6394C100.299 40.6394 99.7435 40.7991 99.2688 41.1183C98.7991 41.4324 98.4354 41.8443 98.1779 42.3541C97.9253 42.8587 97.7991 43.4071 97.7991 43.9993V45.3509C97.7991 46.1439 97.9354 46.8184 98.2082 47.3745C98.4859 47.9306 98.8723 48.3554 99.3673 48.6489C99.8622 48.9373 100.44 49.0815 101.102 49.0815C101.531 49.0815 101.923 49.0197 102.276 48.8961C102.63 48.7674 102.935 48.5769 103.193 48.3246C103.451 48.0722 103.648 47.7607 103.784 47.39L105.928 47.7839C105.756 48.4275 105.448 48.9914 105.004 49.4754C104.564 49.9543 104.011 50.3276 103.345 50.5953C102.683 50.8579 101.928 50.9892 101.079 50.9892Z" fill="#EF7FA5"/>
<path d="M88.5586 50.9892C87.4122 50.9892 86.4248 50.7395 85.5965 50.24C84.7733 49.7354 84.1369 49.0274 83.6874 48.116C83.243 47.1995 83.0208 46.1259 83.0208 44.8952C83.0208 43.68 83.243 42.609 83.6874 41.6822C84.1369 40.7553 84.7632 40.0318 85.5662 39.5118C86.3743 38.9917 87.3187 38.7317 88.3995 38.7317C89.0561 38.7317 89.6925 38.8424 90.3086 39.0638C90.9248 39.2852 91.4778 39.6328 91.9677 40.1065C92.4576 40.5802 92.844 41.1956 93.1268 41.9525C93.4096 42.7043 93.5511 43.6182 93.5511 44.6944V45.5131H84.3011V43.783H91.3314C91.3314 43.1754 91.2101 42.6373 90.9677 42.1687C90.7253 41.695 90.3844 41.3217 89.945 41.0488C89.5107 40.7759 89.0005 40.6394 88.4147 40.6394C87.7783 40.6394 87.2228 40.7991 86.748 41.1183C86.2783 41.4324 85.9147 41.8443 85.6571 42.3541C85.4046 42.8587 85.2783 43.4071 85.2783 43.9993V45.3509C85.2783 46.1439 85.4147 46.8184 85.6874 47.3745C85.9652 47.9306 86.3516 48.3554 86.8465 48.6489C87.3415 48.9373 87.9197 49.0815 88.5814 49.0815C89.0106 49.0815 89.4021 49.0197 89.7556 48.8961C90.1091 48.7674 90.4147 48.5769 90.6723 48.3246C90.9298 48.0722 91.1268 47.7607 91.2632 47.39L93.4071 47.7839C93.2354 48.4275 92.9273 48.9914 92.4829 49.4754C92.0435 49.9543 91.4904 50.3276 90.8238 50.5953C90.1622 50.8579 89.4071 50.9892 88.5586 50.9892Z" fill="#EF7FA5"/>
<path d="M68.8161 50.7499L65.3918 38.8862H67.7328L70.0131 47.5986H70.1267L72.4146 38.8862H74.7555L77.0282 47.56H77.1418L79.407 38.8862H81.7479L78.3312 50.7499H76.0206L73.657 42.1843H73.4828L71.1191 50.7499H68.8161Z" fill="#EF7FA5"/>
<path d="M63.5757 41.7826L61.5226 42.1533C61.4368 41.8855 61.3004 41.6307 61.1135 41.3886C60.9317 41.1466 60.6843 40.9484 60.3711 40.7939C60.058 40.6394 59.6666 40.5622 59.1969 40.5622C58.5555 40.5622 58.0201 40.709 57.5908 41.0025C57.1615 41.2908 56.9469 41.6641 56.9469 42.1224C56.9469 42.5189 57.0908 42.8381 57.3787 43.0801C57.6666 43.3222 58.1312 43.5204 58.7726 43.6749L60.6211 44.1074C61.6918 44.3597 62.4898 44.7485 63.0151 45.2737C63.5403 45.7989 63.8029 46.4812 63.8029 47.3205C63.8029 48.0311 63.6009 48.6644 63.1969 49.2205C62.7979 49.7715 62.2398 50.204 61.5226 50.5181C60.8105 50.8322 59.9848 50.9892 59.0454 50.9892C57.7423 50.9892 56.6792 50.706 55.856 50.1396C55.0327 49.5681 54.5277 48.7571 54.3408 47.7067L56.5302 47.3668C56.6666 47.9487 56.9469 48.3889 57.3711 48.6876C57.7954 48.9811 58.3484 49.1278 59.0302 49.1278C59.7726 49.1278 60.3661 48.9708 60.8105 48.6567C61.255 48.3374 61.4772 47.9487 61.4772 47.4904C61.4772 47.1197 61.3408 46.8081 61.0681 46.5558C60.8004 46.3035 60.3888 46.113 59.8332 45.9843L57.8635 45.544C56.7777 45.2917 55.9747 44.8901 55.4545 44.3391C54.9393 43.7882 54.6817 43.0904 54.6817 42.246C54.6817 41.5457 54.8736 40.933 55.2575 40.4077C55.6413 39.8825 56.1716 39.4732 56.8484 39.1797C57.5252 38.881 58.3004 38.7317 59.1742 38.7317C60.4317 38.7317 61.4216 39.0097 62.1439 39.5659C62.8661 40.1168 63.3433 40.8557 63.5757 41.7826Z" fill="#EF7FA5"/>
<path d="M20.9514 23.9023C21.8179 25.4446 24.9462 25.4829 24.6177 26.2053C24.3558 26.7811 20.6896 26.4932 18.0708 27.6447C17.1308 28.0581 17.1016 29.0796 16.2377 29.6599C15.0735 30.4421 14.1339 30.0699 12.8334 30.5236C12.0005 30.8141 11.524 31.4832 10.7384 31.3872C9.95274 31.2913 8.90626 31.5613 7.85774 31.0993C6.90846 30.6811 6.2865 29.9478 5.76275 29.372C5.239 28.7963 4.26424 29.4516 3.66776 28.7963C2.88215 27.9331 2.61415 27.1589 1.83465 26.2058C1.25439 25.4963 0.483668 25.4143 0.263396 24.478C0.109758 23.825 0.352246 23.4182 0.263396 22.7507C0.202339 22.2921 0.0215779 22.0622 0.00152146 21.5992C-0.0232822 21.0266 0.263396 20.8315 0.263396 20.1598C0.263396 19.488 0.24085 18.8755 0.52527 18.1446C0.839421 17.3373 1.48547 16.9931 1.83464 16.4173C2.18381 15.8415 3.03584 14.5819 4.19151 14.1142C4.68087 13.9162 5.01234 14.0268 5.50088 13.8263C6.05954 13.5971 6.22024 13.0578 6.81025 12.9627C7.3262 12.8795 7.59987 13.204 8.11962 13.2506C9.47954 13.3723 10.1608 12.3221 11.524 12.3869C12.1455 12.4165 12.4959 12.4914 13.0952 12.6748C13.8455 12.9045 14.191 13.2625 14.9283 13.5385C15.7267 13.8372 16.271 13.6953 17.0233 14.1142C18.5929 14.9883 18.3327 16.7052 19.6421 18.1446C20.1928 18.75 20.1882 19.345 20.4277 20.1598C20.8413 21.5668 20.2447 22.6441 20.9514 23.9023Z" fill="#FFEAEC"/>
<path d="M24.95 26.1886C24.9169 26.2 24.8939 26.2058 24.8817 26.2058C24.8598 26.2058 24.8854 26.1995 24.95 26.1886C25.486 26.0034 28.6391 24.3449 30.1192 22.1754C30.6101 21.4559 29.9813 20.7589 30.1192 19.8724C30.3274 18.5333 30.7295 17.8258 31.4286 16.7056C32.1649 15.5257 32.7998 15.0493 33.7854 14.1147C34.2813 13.6445 34.5248 13.3176 35.0948 12.9632L35.1062 12.9561C35.5787 12.6622 35.865 12.4842 36.4042 12.3874C36.8079 12.3149 37.0479 12.4599 37.4517 12.3874C37.9952 12.2898 38.2326 11.9823 38.761 11.8116C39.8448 11.4615 40.5155 11.4269 41.6416 11.5237C42.5816 11.6046 43.0984 11.7909 43.9985 12.0995C45.3964 12.5788 46.3842 12.6706 47.4029 13.8268C48.1354 14.6582 48.1086 15.4694 48.7122 16.4178C49.0876 17.0076 49.6387 17.1497 49.7597 17.8572C49.8561 18.4206 49.5534 18.7266 49.4979 19.2966C49.4325 19.9673 49.574 20.3546 49.4979 21.0239C49.3775 22.0822 49.1154 22.6447 48.7122 23.6148C48.3697 24.4393 48.1275 24.8799 47.6647 25.63C47.3777 26.0953 47.3156 26.2058 46.8791 26.7816C46.4427 27.3573 45.3079 28.5089 45.3079 28.5089C45.3079 28.5089 42.951 29.8523 41.9035 30.524C40.856 31.1958 40.7687 30.9079 40.0704 30.8119C39.3721 30.716 37.7135 30.2362 37.7135 30.2362C37.7135 30.2362 36.2296 29.5644 35.6185 29.3725C35.0075 29.1806 34.2841 29.4345 33.5235 29.0846C32.6538 28.6845 32.4336 27.9952 31.6904 27.3573C30.997 26.7622 30.7108 26.1525 29.8573 25.9179C28.9193 25.6601 25.5033 26.0949 24.95 26.1886Z" fill="#FFEAEC"/>
<path d="M30.9023 29.948C28.8073 29.0841 25.1412 25.9174 24.8792 26.2055C24.3942 26.7389 25.3367 27.2704 25.6648 27.9328C26.3025 29.2201 27.4345 29.6353 27.498 31.0995C27.5441 32.1648 27.0615 32.9227 26.7123 33.6904C26.3632 34.4581 26.0884 34.3087 25.9267 34.842C25.765 35.3753 26.027 35.7302 25.9267 36.2814C25.8633 36.63 25.6648 36.4733 25.6648 37.145V39.4481C25.6648 39.4481 25.8394 41.0794 25.9267 41.7512C26.014 42.4229 26.503 43.0226 26.9742 43.7664C27.4307 44.4869 27.6729 44.9277 28.2836 45.4937C28.9032 46.0679 29.3447 46.2779 30.0781 46.6268L30.1167 46.6452C30.7103 46.9276 31.0903 46.9492 31.6879 47.221C32.6609 47.6634 33.0392 48.3173 34.0448 48.6604C35.0264 48.9952 35.8454 49.0607 36.6635 48.9483L38.7585 48.6604C39.5767 48.5479 40.5839 47.9278 41.6392 47.221C42.6349 46.554 43.2817 46.219 43.996 45.2058C44.5563 44.411 44.2579 43.7662 45.0435 42.9027C45.4123 42.4974 44.8325 42.0338 44.7816 41.4633C44.6814 40.3388 45.5658 39.5575 45.0435 38.5845C44.823 38.1737 44.4732 38.1349 44.2579 37.7208C43.9992 37.2231 44.2099 36.8042 43.996 36.2814C43.7863 35.7687 43.4201 35.6425 43.2104 35.1299C42.9965 34.607 43.201 34.192 42.9485 33.6904C42.6315 33.0606 42.1022 33.0479 41.6392 32.5389C41.1761 32.0299 41.1597 31.4577 40.5917 31.0995C40.0521 30.7592 39.6219 30.986 39.0204 30.8116C37.6937 30.4269 37.2265 29.3623 35.8779 29.0843C34.9733 28.8978 34.4331 28.9483 33.5211 29.0843C32.463 29.2421 31.902 30.3602 30.9023 29.948Z" fill="#FFEAEC"/>
<path d="M23.8325 32.2531C23.9133 29.9618 25.1418 26.7832 24.88 26.4954C23.7025 25.2016 23.0469 28.7979 21.9994 29.95C21.2008 30.8283 19.1187 30.2379 19.1187 30.2379C18.4204 30.046 16.7619 29.6621 16.7619 29.6621C16.7619 29.6621 14.7542 29.8541 13.8813 29.95C13.0083 30.046 12.7487 30.6235 12.0481 31.1016C10.9876 31.8254 9.93803 31.8635 9.4294 33.1167C9.2576 33.5401 9.30342 33.8295 9.16753 34.2683C8.94645 34.9822 8.60299 35.2816 8.38191 35.9956C8.24602 36.4344 8.29383 36.7248 8.12003 37.1471C7.90928 37.6593 7.44971 37.751 7.33441 38.2986C7.21683 38.8571 7.63975 39.1668 7.59629 39.7381C7.55039 40.3414 6.95908 40.585 7.07254 41.1775C7.1485 41.5741 7.46318 41.6631 7.59629 42.0411C7.8178 42.6702 7.43483 43.1176 7.59629 43.7684C7.71662 44.2535 7.96327 44.4476 8.12003 44.92C8.26456 45.3554 8.24071 45.6347 8.38191 46.0715C9.13608 48.4045 10.5815 50.1024 12.8338 50.1019C15.1906 50.1013 15.9204 51.3428 17.5475 50.3897C18.1254 50.0512 18.2813 49.5815 18.8569 49.2382C19.4254 48.8991 19.8436 48.9668 20.4281 48.6624C21.4819 48.1137 22.0228 47.6174 22.785 46.6473C23.267 46.0337 23.3644 45.5464 23.8325 44.92C24.2915 44.3057 24.8879 44.2249 25.1418 43.4805C25.3573 42.8489 25.1418 41.7532 25.1418 41.7532C25.1418 41.7532 25.5414 40.9037 25.6656 40.3138C25.9203 39.104 25.7984 38.3106 25.4037 37.1471C25.2439 36.676 24.9792 36.4864 24.88 35.9956C24.7912 35.5566 25.0093 35.2707 24.88 34.844C24.697 34.2407 24.0402 34.2861 23.8325 33.6925C23.6489 33.1678 23.8127 32.8148 23.8325 32.2531Z" fill="#FFEAEC"/>
<path d="M23.3074 21.8873C23.3074 22.5782 24.1803 24.8621 24.6167 25.9177C25.0532 26.9732 25.7033 22.6011 27.2353 21.3115C28.2165 20.4857 29.3384 20.928 30.1159 19.8721C30.7264 19.0431 30.2032 18.2408 30.9016 17.2812C31.5999 16.3216 33.2584 14.4023 33.2584 14.4023C33.2584 14.4023 34.6796 13.6074 35.0915 12.675C35.6793 11.3449 34.5678 8.93256 34.5678 8.93256C34.5678 8.93256 33.8695 6.82141 33.5203 6.05372C33.1711 5.28604 32.6345 4.58504 31.9491 3.75066C31.1237 2.74593 30.6552 2.13109 29.5922 1.44759C28.4756 0.729606 27.7133 0.600779 26.4497 0.296058C25.8421 0.149523 25.4989 -0.0420321 24.8785 0.0081749C24.2335 0.0603735 23.3074 0.583942 23.3074 0.583942C23.3074 0.583942 21.2122 0.871847 20.6885 1.15971C20.1647 1.44757 19.7406 2.74609 19.1172 3.75066C18.4137 4.88431 17.6885 5.33115 17.2841 6.62949C16.9512 7.69843 17.0224 9.50832 17.0224 9.50832C16.2368 13.5387 17.808 15.266 18.3317 16.4175C18.7507 17.3388 19.7284 18.1448 20.1649 18.4327C20.6013 18.7206 20.8207 19.5318 21.4742 19.8721C21.9455 20.1175 22.372 19.8081 22.7836 20.16C23.2942 20.5965 23.3074 21.0237 23.3074 21.8873Z" fill="#FFEAEC"/>
<path d="M21.7023 22.9531C21.5548 23.0774 20.9052 23.7661 20.9165 23.7692C20.7916 24.0988 20.596 24.5095 20.614 24.8662C20.6347 25.2756 20.8855 25.4875 20.755 25.926C20.6544 26.2643 20.432 26.6588 20.3983 27.0111C20.3559 27.4544 20.9798 27.5113 20.9551 27.8232C20.9208 28.2567 20.7419 28.5641 20.8972 29.0222C21.0045 29.3384 21.1914 29.6667 21.3311 29.9694C21.5256 30.3911 21.9973 31.4292 22.341 31.5857C22.5082 31.6619 22.7696 31.3158 22.9279 31.2506C23.0091 31.2171 23.197 31.3049 23.2907 31.3049C23.6423 31.3049 23.8728 31.4298 24.209 31.5301C24.6918 31.6741 24.9264 31.7121 25.4165 31.5553C25.6175 31.491 26.0335 31.1985 26.2192 31.2095C26.6723 31.2364 27.0803 31.6106 27.5255 31.5566C28.223 31.4719 28.5927 30.7696 28.9226 30.1431L28.9331 30.1231C29.1518 29.7079 29.6253 29.6885 29.8129 29.3203C30.0399 28.8747 29.7546 28.4237 29.7285 27.9583C29.6927 27.3173 30.3086 27.2705 30.2299 26.5911C30.1301 25.7296 29.8808 25.2752 29.6249 24.5376C29.4913 24.1524 29.5877 23.9036 29.3236 23.5784C29.1657 23.384 29.2448 22.9664 29.1212 22.8577C29.0183 22.7672 28.6213 22.8067 28.4571 22.7332C28.2077 22.6215 28.1822 22.2532 28.0751 22.0178C27.965 21.7757 27.6605 21.893 27.4568 21.8482C27.3012 21.814 27.1259 21.6396 26.9688 21.6759C26.5595 21.7707 26.145 21.8972 25.7226 21.8601C25.2815 21.8213 24.8889 21.3995 24.5609 21.8402C24.0643 22.5075 23.3463 22.5849 22.6363 22.5543C22.2605 22.5381 21.993 22.7082 21.7023 22.9531Z" fill="#F0585B"/>
<path d="M22.5263 26.5779C22.3221 26.8356 22.3579 27.245 22.6738 27.4007C22.788 27.4258 22.877 27.6059 22.9731 27.6954C23.2391 27.9428 23.1202 28.2756 23.3252 28.5461C23.4084 28.6559 23.6545 28.654 23.7702 28.6876C23.9837 28.7494 23.976 28.8909 24.0249 29.108C24.082 29.3612 24.216 29.456 24.4369 29.5304C24.6112 29.5892 24.6876 29.6949 24.8363 29.8045C25.032 29.9488 25.4406 29.853 25.6495 29.7888C25.8378 29.7309 25.9806 29.4198 26.1182 29.279C26.3215 29.0707 26.4588 28.8904 26.733 28.9562C26.9569 29.01 27.2519 28.931 27.426 28.7622C27.5826 28.6104 27.4842 28.2727 27.5386 28.0687C27.6053 27.8185 27.8877 27.671 28.0453 27.495C28.1942 27.3286 28.1104 27.1893 27.9675 27.0667C27.8032 26.9255 27.7482 26.6981 27.7736 26.4768C27.8036 26.2158 27.8846 25.9567 27.7647 25.7061C27.6902 25.5505 27.5162 25.4906 27.4251 25.3451C27.3169 25.1722 27.4606 24.97 27.4497 24.7802C27.4348 24.5209 27.2881 24.6158 27.1007 24.6132C26.7688 24.6086 26.4877 24.4323 26.3027 24.1353C26.2055 23.9791 26.0905 23.7732 25.9002 23.7512C25.7507 23.7339 25.6238 23.8786 25.4806 23.9123C25.1954 23.9795 24.9438 23.9236 24.6638 23.9172C24.5372 23.9143 24.4477 24.1557 24.3931 24.2502C24.2538 24.4915 24.1215 24.7378 23.9677 24.9683C23.7764 25.2551 23.2891 25.1172 23.125 25.5165C23.0714 25.6472 23.0538 25.799 23.0066 25.9335C22.911 26.2062 22.6955 26.3645 22.5263 26.5779Z" fill="#BA1E26"/>
<path d="M25.0245 11.1669C24.684 11.4618 24.5911 11.9723 24.7356 12.8005C24.8904 13.7308 25.1381 14.2526 25.4064 14.2072C25.7469 14.1505 25.8811 13.6967 25.8811 12.5282C25.8811 11.0421 25.6334 10.645 25.0245 11.1669Z" fill="#EF7FA5"/>
<path d="M21.9284 12.948C21.8872 12.9821 21.8562 13.243 21.8562 13.5039C21.8562 14.0711 22.7437 16.0337 23.7137 17.6333C24.3948 18.7564 24.6012 18.972 24.7663 18.7905C24.9624 18.5749 24.2297 14.8539 23.8685 14.2186C23.7137 13.9463 22.3515 12.8686 22.1658 12.8686C22.0729 12.8686 21.9594 12.9026 21.9284 12.948Z" fill="#EF7FA5"/>
<path d="M27.8645 13.5154C27.3692 14.0713 26.3785 15.9204 26.1927 16.6238C26.0173 17.2931 26.0689 18.3709 26.2856 18.6658L26.4713 18.9268L26.7293 18.6431C26.8635 18.4957 27.3072 17.7015 27.7097 16.8847C28.2463 15.7957 28.463 15.2284 28.5146 14.786C28.5456 14.4457 28.6281 13.9805 28.6797 13.7423C28.752 13.4246 28.752 13.2545 28.6591 13.141C28.4734 12.9028 28.3908 12.9368 27.8645 13.5154Z" fill="#EF7FA5"/>
<path d="M35.0057 18.2692C34.2007 18.6208 33.5919 19.1994 33.3752 19.812C33.1585 20.3793 32.529 21.423 31.8479 22.3078C31.239 23.102 31.208 23.3062 31.7447 23.3062C32.2813 23.2948 32.8489 22.9885 33.6435 22.2511C34.3762 21.5591 34.985 20.6061 35.6352 19.086C36.1511 17.8834 36.0789 17.804 35.0057 18.2692Z" fill="#EF7FA5"/>
<path d="M15.6874 18.4393C15.5635 18.4961 15.4087 18.6662 15.3571 18.825C15.2023 19.2675 15.45 19.778 16.0692 20.3452C16.3685 20.6175 16.7193 21.0826 16.8535 21.3662C17.1631 22.0469 18.3705 23.3062 18.7007 23.3062C19.3818 23.3062 19.258 22.3872 18.4633 21.4456C18.1847 21.128 17.8545 20.5835 17.71 20.2431C17.3901 19.4717 16.6471 18.5641 16.2343 18.4393C16.0589 18.394 15.8215 18.394 15.6874 18.4393Z" fill="#EF7FA5"/>
<path d="M35.2315 22.4557C35.0354 22.6713 34.9116 23.1364 35.0148 23.2952C35.1799 23.5902 36.2635 23.3633 36.8104 22.9209C36.9962 22.762 37.2129 22.6713 37.2954 22.7053C37.378 22.7394 37.4399 22.7053 37.4399 22.6372C37.4399 22.4557 37.3161 22.433 36.2944 22.3423C35.5514 22.2856 35.376 22.3083 35.2315 22.4557Z" fill="#EF7FA5"/>
<path d="M13.9524 22.8743C14.0452 23.3734 14.262 23.6003 14.8502 23.8158C15.4797 24.0541 16.0163 24.0087 16.0576 23.7251C16.1814 23.0104 15.7893 22.6927 14.6438 22.5793L13.8801 22.5112L13.9524 22.8743Z" fill="#EF7FA5"/>
<path d="M32.4237 24.2586C32.3308 24.5422 32.6714 25.1662 33.1771 25.6427C34.3019 26.675 35.21 27.3897 35.4164 27.4011C36.3349 27.4578 36.5 27.1288 36.0459 26.1418C35.757 25.5292 35.468 25.3023 34.756 25.1775C34.1884 25.0754 34.0026 24.9733 33.4763 24.4742C33.0429 24.0771 32.5269 23.975 32.4237 24.2586Z" fill="#EF7FA5"/>
<path d="M16.5429 25.3826C15.4696 25.8024 14.8092 26.2108 14.3964 26.6873C14.1487 26.9709 14.1074 27.0957 14.1694 27.3793C14.3242 28.1621 15.1704 28.128 16.3158 27.2772C16.7183 26.9709 17.3168 26.4377 17.6264 26.0973C18.0908 25.5641 18.1734 25.428 18.0805 25.2578C17.9051 24.9629 17.5542 24.9856 16.5429 25.3826Z" fill="#EF7FA5"/>
<path d="M19.0722 32.3128C18.6491 32.4602 18.0712 32.6871 17.8029 32.8233C17.483 32.9707 17.0909 33.0615 16.7194 33.0615C15.7184 33.0615 15.0889 33.5834 14.9754 34.525C14.8618 35.4666 15.4088 35.6708 16.5749 35.1149C16.9567 34.9334 17.4417 34.7518 17.6585 34.7178C17.9474 34.6611 18.2157 34.4682 18.6491 33.9918C18.9794 33.6401 19.4541 33.1863 19.7017 33.0048C20.1764 32.6418 20.3209 32.3014 20.0836 32.1426C19.9185 32.0178 19.9907 32.0065 19.0722 32.3128Z" fill="#EF7FA5"/>
<path d="M32.0235 32.5756C31.5178 32.5982 31.0638 32.655 31.0122 32.7117C30.9709 32.7571 31.5281 33.1201 32.2505 33.5058C32.9729 33.8915 33.7985 34.3793 34.0771 34.5949C34.5312 34.9579 34.6344 34.9919 35.3258 34.9919C35.7386 34.9919 36.1513 34.9579 36.2442 34.9239C36.4712 34.8331 36.4506 34.2886 36.2133 33.9596C35.6663 33.1882 34.2009 32.4621 33.3134 32.5188C33.1174 32.5302 32.5395 32.5642 32.0235 32.5756Z" fill="#EF7FA5"/>
<path d="M28.9566 33.9699C28.8121 34.072 28.7915 34.2081 28.843 34.8548C28.8946 35.5014 28.8637 35.717 28.6263 36.3182C28.3683 36.9876 28.3683 37.0783 28.4303 38.4737C28.4922 39.9145 28.4922 39.9258 28.8327 40.2888C29.3178 40.8334 29.8853 40.788 30.1743 40.1981C30.4529 39.5855 30.4013 38.5077 29.906 35.0817C29.7615 34.0493 29.4313 33.675 28.9566 33.9699Z" fill="#EF7FA5"/>
<path d="M21.9816 34.3548C21.6308 34.7973 21.445 35.7049 21.445 37.0208C21.445 37.4973 21.3831 38.0078 21.2902 38.246C21.1457 38.6204 21.1457 38.7339 21.3005 39.4145C21.5276 40.4355 21.6824 40.6851 22.0951 40.6397C22.3841 40.6057 22.4563 40.5149 22.8072 39.7549C23.1271 39.0288 23.189 38.7906 23.189 38.1099C23.1993 36.9754 22.931 34.7292 22.735 34.3208C22.5286 33.867 22.3634 33.8784 21.9816 34.3548Z" fill="#EF7FA5"/>
<path d="M32.072 36.4787C32.072 36.8985 32.6602 37.9875 33.0008 38.1918C33.4961 38.4981 33.7232 38.464 33.7232 38.067C33.7232 37.6586 32.846 36.5468 32.3816 36.3653C32.103 36.2632 32.072 36.2745 32.072 36.4787Z" fill="#EF7FA5"/>
<path d="M17.9447 37.6006C17.3771 38.5535 17.3359 38.8825 17.7486 39.0186C18.0066 39.1207 18.6361 38.4741 18.9767 37.7707C19.2037 37.3056 19.2037 37.2716 19.0386 36.9879C18.7393 36.4888 18.5226 36.6136 17.9447 37.6006Z" fill="#EF7FA5"/>
</svg>
