<svg width="108" height="32" viewBox="0 0 108 32" fill="none" xmlns="http://www.w3.org/2000/svg">
<path d="M104.923 9.57963L103.048 9.78418C102.995 9.59478 102.902 9.41676 102.77 9.25009C102.641 9.08342 102.467 8.94895 102.247 8.84668C102.027 8.74441 101.758 8.69327 101.44 8.69327C101.012 8.69327 100.652 8.78607 100.361 8.97168C100.073 9.15729 99.9308 9.39782 99.9346 9.69327C99.9308 9.94706 100.024 10.1535 100.213 10.3126C100.406 10.4717 100.724 10.6024 101.168 10.7046L102.656 11.0228C103.482 11.2008 104.096 11.483 104.497 11.8694C104.902 12.2558 105.107 12.7615 105.111 13.3865C105.107 13.9357 104.946 14.4205 104.628 14.841C104.313 15.2577 103.876 15.5834 103.315 15.8183C102.755 16.0531 102.111 16.1705 101.383 16.1705C100.315 16.1705 99.4554 15.9471 98.8039 15.5001C98.1524 15.0493 97.7642 14.4224 97.6392 13.6194L99.6448 13.4262C99.7358 13.8202 99.9289 14.1175 100.224 14.3183C100.52 14.519 100.904 14.6194 101.378 14.6194C101.866 14.6194 102.258 14.519 102.554 14.3183C102.853 14.1175 103.003 13.8694 103.003 13.574C103.003 13.324 102.906 13.1175 102.713 12.9546C102.524 12.7918 102.228 12.6668 101.827 12.5796L100.338 12.2671C99.5009 12.0929 98.8816 11.7993 98.4801 11.3865C98.0785 10.9698 97.8797 10.4433 97.8835 9.80691C97.8797 9.26903 98.0255 8.80312 98.321 8.40918C98.6202 8.01145 99.035 7.70463 99.5653 7.48872C100.099 7.26903 100.715 7.15918 101.412 7.15918C102.435 7.15918 103.24 7.37698 103.827 7.81259C104.418 8.24819 104.783 8.83721 104.923 9.57963Z" fill="#FFEAEC"/>
<path d="M97.4888 4.36377V5.52286C97.4888 5.85619 97.4244 6.20278 97.2956 6.56263C97.1706 6.91869 96.9982 7.2596 96.7785 7.58536C96.5588 7.90733 96.3088 8.18384 96.0285 8.41491L95.074 7.79559C95.2823 7.48119 95.4641 7.14218 95.6194 6.77854C95.7747 6.41112 95.8524 5.99635 95.8524 5.53422V4.36377H97.4888Z" fill="#FFEAEC"/>
<path d="M87.3921 16.0001H85.1421L89.2387 4.36377H91.841L95.9432 16.0001H93.6932L90.5853 6.75013H90.4944L87.3921 16.0001ZM87.466 11.4376H93.6023V13.1308H87.466V11.4376Z" fill="#FFEAEC"/>
<path d="M75.4915 16.0001V4.36377H79.8551C80.749 4.36377 81.499 4.51907 82.1051 4.82968C82.7149 5.14028 83.1752 5.57589 83.4858 6.1365C83.8002 6.69332 83.9574 7.34294 83.9574 8.08536C83.9574 8.83157 83.7983 9.4793 83.4801 10.0285C83.1657 10.574 82.7017 10.9963 82.088 11.2956C81.4744 11.591 80.7206 11.7388 79.8267 11.7388H76.7187V9.98877H79.5426C80.0653 9.98877 80.4933 9.9168 80.8267 9.77286C81.16 9.62513 81.4062 9.41112 81.5653 9.13082C81.7282 8.84672 81.8096 8.49824 81.8096 8.08536C81.8096 7.67248 81.7282 7.32021 81.5653 7.02854C81.4024 6.73309 81.1543 6.5096 80.821 6.35809C80.4877 6.20278 80.0577 6.12513 79.5312 6.12513H77.5994V16.0001H75.4915ZM81.5028 10.7274L84.3835 16.0001H82.0312L79.2017 10.7274H81.5028Z" fill="#FFEAEC"/>
<path d="M71.0923 4.36377H73.2003V11.966C73.2003 12.7994 73.0033 13.5323 72.6094 14.1649C72.2192 14.7975 71.67 15.2918 70.9616 15.6479C70.2533 16.0001 69.4256 16.1763 68.4787 16.1763C67.5279 16.1763 66.6984 16.0001 65.99 15.6479C65.2817 15.2918 64.7325 14.7975 64.3423 14.1649C63.9522 13.5323 63.7571 12.7994 63.7571 11.966V4.36377H65.865V11.7899C65.865 12.2748 65.9711 12.7066 66.1832 13.0854C66.3991 13.4641 66.7022 13.7615 67.0923 13.9774C67.4825 14.1895 67.9446 14.2956 68.4787 14.2956C69.0128 14.2956 69.4749 14.1895 69.865 13.9774C70.259 13.7615 70.562 13.4641 70.7741 13.0854C70.9862 12.7066 71.0923 12.2748 71.0923 11.7899V4.36377Z" fill="#FFEAEC"/>
<path d="M52.929 16.0001V4.36377H55.0369V9.71036H55.179L59.7187 4.36377H62.2926L57.7926 9.58536L62.3324 16.0001H59.7983L56.3267 11.0115L55.0369 12.5342V16.0001H52.929Z" fill="#FFEAEC"/>
<path d="M42.8452 16.0001H40.5952L44.6918 4.36377H47.2941L51.3964 16.0001H49.1464L46.0384 6.75013H45.9475L42.8452 16.0001ZM42.9191 11.4376H49.0554V13.1308H42.9191V11.4376Z" fill="#FFEAEC"/>
<path d="M37.4716 7.56254C37.4186 7.06633 37.1951 6.67997 36.8012 6.40345C36.411 6.12694 35.9034 5.98868 35.2784 5.98868C34.839 5.98868 34.4621 6.05497 34.1477 6.18754C33.8334 6.32012 33.5928 6.50004 33.4262 6.72732C33.2595 6.95459 33.1743 7.21406 33.1705 7.50573C33.1705 7.74815 33.2254 7.95838 33.3352 8.13641C33.4489 8.31444 33.6023 8.46595 33.7955 8.59095C33.9887 8.71217 34.2027 8.81444 34.4375 8.89777C34.6724 8.98111 34.9091 9.05118 35.1477 9.108L36.2387 9.38073C36.6781 9.483 37.1004 9.62126 37.5057 9.7955C37.9148 9.96974 38.2803 10.1894 38.6023 10.4546C38.9281 10.7197 39.1856 11.0398 39.375 11.4148C39.5644 11.7898 39.6591 12.2292 39.6591 12.733C39.6591 13.4148 39.4849 14.0152 39.1364 14.5341C38.7879 15.0493 38.2841 15.4527 37.625 15.7444C36.9697 16.0322 36.1762 16.1762 35.2443 16.1762C34.339 16.1762 33.5531 16.036 32.8864 15.7557C32.2235 15.4754 31.7046 15.0663 31.3296 14.5285C30.9584 13.9906 30.7576 13.3353 30.7273 12.5625H32.8012C32.8315 12.9678 32.9565 13.305 33.1762 13.5739C33.3959 13.8428 33.6818 14.0436 34.0341 14.1762C34.3902 14.3088 34.7879 14.375 35.2273 14.375C35.6856 14.375 36.0871 14.3069 36.4318 14.1705C36.7803 14.0303 37.0531 13.8372 37.25 13.591C37.447 13.341 37.5474 13.0493 37.5512 12.716C37.5474 12.4129 37.4584 12.1629 37.2841 11.966C37.1099 11.7652 36.8656 11.5985 36.5512 11.466C36.2406 11.3296 35.8769 11.2084 35.4602 11.1023L34.1364 10.7614C33.1781 10.5152 32.4205 10.1421 31.8637 9.64209C31.3106 9.1383 31.0341 8.46974 31.0341 7.63641C31.0341 6.9508 31.2197 6.35042 31.5909 5.83527C31.9659 5.32012 32.4754 4.9205 33.1193 4.63641C33.7633 4.34853 34.4924 4.20459 35.3068 4.20459C36.1326 4.20459 36.8561 4.34853 37.4773 4.63641C38.1023 4.9205 38.5928 5.31633 38.9489 5.82391C39.3049 6.3277 39.4887 6.90724 39.5 7.56254H37.4716Z" fill="#FFEAEC"/>
<path d="M70.3433 23.0526L69.1885 23.2572C69.1402 23.1094 69.0635 22.9688 68.9583 22.8353C68.8561 22.7018 68.7169 22.5924 68.5407 22.5072C68.3646 22.4219 68.1444 22.3793 67.8802 22.3793C67.5194 22.3793 67.2183 22.4603 66.9768 22.6222C66.7353 22.7813 66.6146 22.9873 66.6146 23.2401C66.6146 23.4589 66.6956 23.635 66.8575 23.7685C67.0194 23.9021 67.2808 24.0114 67.6416 24.0967L68.6814 24.3353C69.2836 24.4745 69.7325 24.689 70.0279 24.9788C70.3234 25.2685 70.4711 25.645 70.4711 26.108C70.4711 26.5001 70.3575 26.8495 70.1302 27.1563C69.9058 27.4603 69.5919 27.6989 69.1885 27.8722C68.7879 28.0455 68.3234 28.1322 67.795 28.1322C67.062 28.1322 66.464 27.9759 66.001 27.6634C65.5379 27.3481 65.2538 26.9006 65.1487 26.3211L66.3802 26.1336C66.4569 26.4546 66.6146 26.6975 66.8532 26.8623C67.0919 27.0242 67.4029 27.1052 67.7865 27.1052C68.2041 27.1052 68.5379 27.0185 68.7879 26.8452C69.0379 26.6691 69.1629 26.4546 69.1629 26.2018C69.1629 25.9972 69.0862 25.8254 68.9328 25.6861C68.7822 25.5469 68.5507 25.4418 68.2382 25.3708L67.1302 25.1279C66.5194 24.9887 66.0677 24.7671 65.7751 24.4631C65.4853 24.1592 65.3404 23.7742 65.3404 23.3083C65.3404 22.9219 65.4484 22.5839 65.6643 22.2941C65.8802 22.0043 66.1785 21.7785 66.5592 21.6165C66.9399 21.4518 67.376 21.3694 67.8674 21.3694C68.5748 21.3694 69.1316 21.5228 69.5379 21.8296C69.9441 22.1336 70.2126 22.5413 70.3433 23.0526Z" fill="#EF7FA5"/>
<path d="M64.1344 21.4547V22.4774H60.5591V21.4547H64.1344ZM61.5179 19.8865H62.792V26.0782C62.792 26.3254 62.829 26.5115 62.9028 26.6365C62.9767 26.7586 63.0719 26.8424 63.1883 26.8879C63.3077 26.9305 63.4369 26.9518 63.5761 26.9518C63.6784 26.9518 63.7679 26.9447 63.8446 26.9305C63.9213 26.9163 63.981 26.9049 64.0236 26.8964L64.2537 27.949C64.1798 27.9774 64.0747 28.0058 63.9383 28.0342C63.802 28.0655 63.6315 28.0825 63.427 28.0853C63.0918 28.091 62.7793 28.0314 62.4895 27.9064C62.1997 27.7814 61.9653 27.5882 61.7864 27.3268C61.6074 27.0655 61.5179 26.7373 61.5179 26.3424V19.8865Z" fill="#EF7FA5"/>
<path d="M56.8572 28.1322C56.2124 28.1322 55.657 27.9944 55.1911 27.7188C54.728 27.4404 54.37 27.0498 54.1172 26.5469C53.8672 26.0413 53.7422 25.4489 53.7422 24.77C53.7422 24.0995 53.8672 23.5086 54.1172 22.9972C54.37 22.4859 54.7223 22.0867 55.174 21.7998C55.6286 21.5129 56.1598 21.3694 56.7678 21.3694C57.1371 21.3694 57.495 21.4305 57.8416 21.5526C58.1882 21.6748 58.4993 21.8665 58.7749 22.1279C59.0504 22.3893 59.2678 22.7288 59.4268 23.1464C59.5859 23.5611 59.6655 24.0654 59.6655 24.6592V25.1109H54.4624V24.1563H58.4169C58.4169 23.8211 58.3487 23.5242 58.2124 23.2657C58.076 23.0043 57.8842 22.7984 57.6371 22.6478C57.3928 22.4972 57.1058 22.4219 56.7763 22.4219C56.4183 22.4219 56.1058 22.51 55.8388 22.6861C55.5746 22.8594 55.37 23.0867 55.2251 23.368C55.0831 23.6464 55.0121 23.9489 55.0121 24.2756V25.0214C55.0121 25.4589 55.0888 25.831 55.2422 26.1379C55.3984 26.4447 55.6158 26.679 55.8942 26.841C56.1726 27.0001 56.4979 27.0796 56.87 27.0796C57.1115 27.0796 57.3317 27.0455 57.5305 26.9773C57.7294 26.9063 57.9013 26.8012 58.0462 26.662C58.1911 26.5228 58.3018 26.3509 58.3786 26.1464L59.5845 26.3637C59.4879 26.7188 59.3146 27.0299 59.0646 27.2969C58.8175 27.5611 58.5064 27.7671 58.1314 27.9148C57.7592 28.0597 57.3345 28.1322 56.8572 28.1322Z" fill="#EF7FA5"/>
<path d="M49.8143 28.1322C49.1694 28.1322 48.614 27.9944 48.1481 27.7188C47.685 27.4404 47.3271 27.0498 47.0742 26.5469C46.8242 26.0413 46.6992 25.4489 46.6992 24.77C46.6992 24.0995 46.8242 23.5086 47.0742 22.9972C47.3271 22.4859 47.6793 22.0867 48.131 21.7998C48.5856 21.5129 49.1168 21.3694 49.7248 21.3694C50.0941 21.3694 50.4521 21.4305 50.7987 21.5526C51.1452 21.6748 51.4563 21.8665 51.7319 22.1279C52.0075 22.3893 52.2248 22.7288 52.3839 23.1464C52.543 23.5611 52.6225 24.0654 52.6225 24.6592V25.1109H47.4194V24.1563H51.3739C51.3739 23.8211 51.3058 23.5242 51.1694 23.2657C51.033 23.0043 50.8413 22.7984 50.5941 22.6478C50.3498 22.4972 50.0629 22.4219 49.7333 22.4219C49.3754 22.4219 49.0629 22.51 48.7958 22.6861C48.5316 22.8594 48.3271 23.0867 48.1822 23.368C48.0401 23.6464 47.9691 23.9489 47.9691 24.2756V25.0214C47.9691 25.4589 48.0458 25.831 48.1992 26.1379C48.3555 26.4447 48.5728 26.679 48.8512 26.841C49.1296 27.0001 49.4549 27.0796 49.8271 27.0796C50.0685 27.0796 50.2887 27.0455 50.4876 26.9773C50.6864 26.9063 50.8583 26.8012 51.0032 26.662C51.1481 26.5228 51.2589 26.3509 51.3356 26.1464L52.5415 26.3637C52.445 26.7188 52.2717 27.0299 52.0217 27.2969C51.7745 27.5611 51.4634 27.7671 51.0884 27.9148C50.7163 28.0597 50.2915 28.1322 49.8143 28.1322Z" fill="#EF7FA5"/>
<path d="M38.7091 28L36.783 21.4546H38.0997L39.3824 26.2614H39.4463L40.7332 21.4546H42.05L43.3284 26.2401H43.3923L44.6665 21.4546H45.9832L44.0614 28H42.7617L41.4321 23.2742H41.3341L40.0045 28H38.7091Z" fill="#EF7FA5"/>
<path d="M35.7613 23.0526L34.6064 23.2572C34.5581 23.1094 34.4814 22.9688 34.3763 22.8353C34.274 22.7018 34.1348 22.5924 33.9587 22.5072C33.7826 22.4219 33.5624 22.3793 33.2982 22.3793C32.9374 22.3793 32.6363 22.4603 32.3948 22.6222C32.1533 22.7813 32.0326 22.9873 32.0326 23.2401C32.0326 23.4589 32.1135 23.635 32.2755 23.7685C32.4374 23.9021 32.6988 24.0114 33.0595 24.0967L34.0993 24.3353C34.7016 24.4745 35.1505 24.689 35.4459 24.9788C35.7414 25.2685 35.8891 25.645 35.8891 26.108C35.8891 26.5001 35.7755 26.8495 35.5482 27.1563C35.3238 27.4603 35.0098 27.6989 34.6064 27.8722C34.2059 28.0455 33.7414 28.1322 33.213 28.1322C32.48 28.1322 31.882 27.9759 31.4189 27.6634C30.9559 27.3481 30.6718 26.9006 30.5667 26.3211L31.7982 26.1336C31.8749 26.4546 32.0326 26.6975 32.2712 26.8623C32.5098 27.0242 32.8209 27.1052 33.2044 27.1052C33.622 27.1052 33.9559 27.0185 34.2059 26.8452C34.4559 26.6691 34.5809 26.4546 34.5809 26.2018C34.5809 25.9972 34.5042 25.8254 34.3507 25.6861C34.2002 25.5469 33.9686 25.4418 33.6561 25.3708L32.5482 25.1279C31.9374 24.9887 31.4857 24.7671 31.1931 24.4631C30.9033 24.1592 30.7584 23.7742 30.7584 23.3083C30.7584 22.9219 30.8664 22.5839 31.0823 22.2941C31.2982 22.0043 31.5965 21.7785 31.9772 21.6165C32.3578 21.4518 32.7939 21.3694 33.2854 21.3694C33.9928 21.3694 34.5496 21.5228 34.9559 21.8296C35.3621 22.1336 35.6306 22.5413 35.7613 23.0526Z" fill="#EF7FA5"/>
<path d="M11.7852 13.1874C12.2726 14.0384 14.0323 14.0595 13.8474 14.4581C13.7001 14.7757 11.6379 14.6169 10.1648 15.2522C9.6361 15.4803 9.61964 16.0438 9.13371 16.364C8.47883 16.7956 7.9503 16.5902 7.21876 16.8405C6.75028 17.0008 6.48224 17.37 6.04033 17.317C5.59841 17.2641 5.00977 17.4131 4.41998 17.1582C3.88601 16.9275 3.53616 16.5229 3.24155 16.2052C2.94694 15.8875 2.39864 16.2491 2.06311 15.8875C1.62121 15.4113 1.47046 14.9842 1.03199 14.4583C0.705594 14.0669 0.272063 14.0216 0.14816 13.5051C0.0617391 13.1447 0.198138 12.9203 0.14816 12.5521C0.113816 12.299 0.0121376 12.1722 0.000855824 11.9167C-0.0130962 11.6008 0.14816 11.4932 0.14816 11.1226C0.14816 10.752 0.135478 10.414 0.295464 10.0108C0.472174 9.56535 0.835579 9.37543 1.03199 9.05776C1.22839 8.7401 1.70766 8.04511 2.35772 7.7871C2.63299 7.67785 2.81944 7.73889 3.09424 7.62827C3.40849 7.50177 3.49888 7.20426 3.83076 7.15178C4.12099 7.10588 4.27493 7.28494 4.56729 7.31061C5.33224 7.37778 5.71547 6.79835 6.48224 6.83411C6.83183 6.85042 7.02897 6.89174 7.36606 6.99294C7.78812 7.11965 7.98246 7.31721 8.39719 7.46944C8.84626 7.63428 9.15245 7.55596 9.57563 7.7871C10.4585 8.26935 10.3121 9.21659 11.0487 10.0108C11.3585 10.3448 11.3559 10.6731 11.4906 11.1226C11.7232 11.8989 11.3876 12.4932 11.7852 13.1874Z" fill="#FFEAEC"/>
<path d="M14.0344 14.449C14.0158 14.4553 14.0029 14.4585 13.996 14.4585C13.9837 14.4585 13.9981 14.455 14.0344 14.449C14.3359 14.3468 16.1095 13.4318 16.9421 12.2348C17.2182 11.8379 16.8646 11.4533 16.9421 10.9642C17.0592 10.2254 17.2854 9.83504 17.6786 9.21702C18.0928 8.56601 18.4499 8.30319 19.0044 7.78753C19.2833 7.52811 19.4203 7.34776 19.7409 7.1522L19.7473 7.14828C20.0131 6.98615 20.1741 6.88793 20.4774 6.83453C20.7045 6.79456 20.8395 6.87451 21.0666 6.83453C21.3724 6.78071 21.5059 6.61105 21.8031 6.51687C22.4128 6.32371 22.79 6.30462 23.4235 6.35804C23.9522 6.40263 24.2429 6.50544 24.7492 6.6757C25.5355 6.94011 26.0911 6.99076 26.6642 7.6287C27.0762 8.08742 27.0612 8.53493 27.4007 9.05818C27.6119 9.38361 27.9218 9.46202 27.9899 9.85235C28.0441 10.1632 27.8739 10.332 27.8426 10.6465C27.8058 11.0166 27.8854 11.2302 27.8426 11.5995C27.7749 12.1834 27.6275 12.4937 27.4007 13.029C27.208 13.4839 27.0718 13.7269 26.8115 14.1408C26.65 14.3975 26.6151 14.4585 26.3696 14.7761C26.1241 15.0938 25.4857 15.7291 25.4857 15.7291C25.4857 15.7291 24.16 16.4704 23.5708 16.841C22.9816 17.2116 22.9325 17.0527 22.5397 16.9998C22.1469 16.9468 21.2139 16.6821 21.2139 16.6821C21.2139 16.6821 20.3792 16.3115 20.0355 16.2056C19.6918 16.0997 19.2849 16.2399 18.8571 16.0468C18.3678 15.826 18.244 15.4457 17.8259 15.0938C17.4359 14.7654 17.2749 14.4291 16.7948 14.2996C16.2672 14.1574 14.3457 14.3973 14.0344 14.449Z" fill="#FFEAEC"/>
<path d="M17.3825 16.523C16.2041 16.0464 14.1419 14.2992 13.9945 14.4582C13.7217 14.7525 14.2519 15.0458 14.4364 15.4112C14.7951 16.1214 15.4319 16.3505 15.4675 17.1583C15.4935 17.7461 15.222 18.1643 15.0256 18.5878C14.8292 19.0114 14.6747 18.9289 14.5837 19.2231C14.4928 19.5174 14.6401 19.7132 14.5837 20.0173C14.548 20.2097 14.4364 20.1232 14.4364 20.4938V21.7645C14.4364 21.7645 14.5346 22.6645 14.5837 23.0351C14.6328 23.4057 14.9079 23.7366 15.1729 24.1469C15.4297 24.5445 15.5659 24.7877 15.9095 25.0999C16.258 25.4168 16.5063 25.5326 16.9189 25.7251L16.9406 25.7353C17.2745 25.8911 17.4882 25.903 17.8244 26.0529C18.3717 26.297 18.5845 26.6578 19.1501 26.8471C19.7023 27.0318 20.163 27.068 20.6232 27.0059L21.8016 26.8471C22.2618 26.7851 22.8284 26.4429 23.422 26.0529C23.9821 25.6849 24.3459 25.5001 24.7477 24.9411C25.0629 24.5026 24.895 24.1468 25.3369 23.6705C25.5444 23.4468 25.2182 23.1911 25.1896 22.8763C25.1332 22.2559 25.6307 21.8248 25.3369 21.288C25.2129 21.0613 25.0161 21.04 24.895 20.8115C24.7495 20.5369 24.868 20.3058 24.7477 20.0173C24.6297 19.7345 24.4238 19.6648 24.3058 19.382C24.1855 19.0935 24.3005 18.8646 24.1585 18.5878C23.9801 18.2403 23.6824 18.2333 23.422 17.9525C23.1615 17.6716 23.1523 17.3559 22.8327 17.1583C22.5292 16.9706 22.2873 17.0957 21.9489 16.9995C21.2027 16.7872 20.9398 16.1999 20.1813 16.0465C19.6724 15.9436 19.3686 15.9715 18.8555 16.0465C18.2604 16.1336 17.9448 16.7504 17.3825 16.523Z" fill="#FFEAEC"/>
<path d="M13.4058 17.7948C13.4512 16.5306 14.1423 14.7769 13.995 14.6181C13.3327 13.9043 12.9639 15.8885 12.3747 16.5241C11.9255 17.0087 10.7543 16.6829 10.7543 16.6829C10.3615 16.577 9.42859 16.3653 9.42859 16.3653C9.42859 16.3653 8.29925 16.4712 7.80824 16.5241C7.31723 16.577 7.17115 16.8957 6.77711 17.1594C6.18053 17.5588 5.59017 17.5798 5.30407 18.2713C5.20743 18.5048 5.2332 18.6645 5.15677 18.9066C5.03241 19.3005 4.83921 19.4657 4.71485 19.8596C4.63842 20.1017 4.66531 20.2619 4.56755 20.4949C4.449 20.7775 4.19049 20.8281 4.12564 21.1302C4.0595 21.4384 4.29739 21.6092 4.27294 21.9244C4.24712 22.2573 3.91451 22.3917 3.97833 22.7186C4.02106 22.9374 4.19807 22.9865 4.27294 23.195C4.39754 23.5421 4.18213 23.789 4.27294 24.148C4.34063 24.4157 4.47937 24.5228 4.56755 24.7834C4.64885 25.0236 4.63543 25.1777 4.71485 25.4187C5.13907 26.7059 5.95215 27.6426 7.21902 27.6424C8.54476 27.642 8.95524 28.327 9.8705 27.8012C10.1956 27.6144 10.2833 27.3553 10.607 27.1659C10.9268 26.9788 11.162 27.0161 11.4908 26.8482C12.0836 26.5454 12.3879 26.2716 12.8166 25.7364C13.0877 25.3978 13.1425 25.129 13.4058 24.7834C13.664 24.4444 13.9995 24.3999 14.1423 23.9892C14.2635 23.6407 14.1423 23.0362 14.1423 23.0362C14.1423 23.0362 14.3671 22.5675 14.4369 22.2421C14.5802 21.5746 14.5116 21.1368 14.2896 20.4949C14.1997 20.235 14.0508 20.1304 13.995 19.8596C13.9451 19.6174 14.0678 19.4596 13.995 19.2242C13.8921 18.8914 13.5226 18.9164 13.4058 18.5889C13.3025 18.2994 13.3947 18.1047 13.4058 17.7948Z" fill="#FFEAEC"/>
<path d="M13.1104 12.0758C13.1104 12.457 13.6014 13.717 13.8469 14.2994C14.0924 14.8818 14.4581 12.4696 15.3199 11.7581C15.8718 11.3025 16.5029 11.5465 16.9402 10.9639C17.2836 10.5066 16.9893 10.0639 17.3821 9.53444C17.775 9.005 18.7079 7.94612 18.7079 7.94612C18.7079 7.94612 19.5073 7.50751 19.739 6.99313C20.0696 6.25928 19.4444 4.92831 19.4444 4.92831C19.4444 4.92831 19.0516 3.76354 18.8552 3.33999C18.6588 2.91643 18.3569 2.52968 17.9714 2.06933C17.5071 1.515 17.2436 1.17578 16.6456 0.798671C16.0175 0.402541 15.5887 0.331464 14.878 0.163342C14.5362 0.0824953 14.3431 -0.0231901 13.9941 0.00451029C13.6313 0.0333095 13.1104 0.322175 13.1104 0.322175C13.1104 0.322175 11.9319 0.481019 11.6373 0.639839C11.3427 0.798659 11.1041 1.51508 10.7535 2.06933C10.3577 2.69479 9.94978 2.94132 9.72233 3.65765C9.53507 4.24741 9.5751 5.24597 9.5751 5.24597C9.13319 7.46962 10.017 8.42262 10.3116 9.05794C10.5473 9.56621 11.0972 10.0109 11.3428 10.1698C11.5883 10.3286 11.7117 10.7762 12.0793 10.9639C12.3444 11.0993 12.5843 10.9286 12.8158 11.1228C13.103 11.3636 13.1104 11.5993 13.1104 12.0758Z" fill="#FFEAEC"/>
<path d="M12.2075 12.6637C12.1246 12.7322 11.7592 13.1122 11.7656 13.1139C11.6953 13.2958 11.5853 13.5224 11.5954 13.7192C11.607 13.9451 11.7481 14.062 11.6747 14.3039C11.6181 14.4906 11.493 14.7082 11.4741 14.9026C11.4502 15.1471 11.8011 15.1785 11.7873 15.3506C11.768 15.5898 11.6673 15.7594 11.7547 16.0121C11.8151 16.1866 11.9202 16.3677 11.9988 16.5348C12.1082 16.7674 12.3735 17.3402 12.5668 17.4265C12.6609 17.4685 12.8079 17.2776 12.897 17.2416C12.9426 17.2231 13.0483 17.2716 13.101 17.2716C13.2988 17.2716 13.4285 17.3405 13.6176 17.3958C13.8891 17.4753 14.0211 17.4963 14.2968 17.4097C14.4099 17.3742 14.6439 17.2129 14.7483 17.2189C15.0032 17.2338 15.2327 17.4403 15.4831 17.4104C15.8754 17.3637 16.0834 16.9763 16.269 16.6306L16.2749 16.6196C16.3979 16.3905 16.6643 16.3798 16.7698 16.1766C16.8974 15.9308 16.737 15.6819 16.7223 15.4252C16.7021 15.0715 17.0486 15.0457 17.0043 14.6709C16.9482 14.1955 16.808 13.9448 16.664 13.5379C16.5888 13.3254 16.6431 13.1881 16.4945 13.0087C16.4057 12.9014 16.4502 12.671 16.3807 12.6111C16.3228 12.5611 16.0995 12.5829 16.0071 12.5423C15.8668 12.4807 15.8525 12.2775 15.7923 12.1476C15.7303 12.0141 15.5591 12.0788 15.4445 12.0541C15.357 12.0352 15.2583 11.939 15.1699 11.9591C14.9397 12.0113 14.7066 12.0811 14.469 12.0607C14.2209 12.0392 14 11.8065 13.8155 12.0497C13.5362 12.4178 13.1323 12.4606 12.7329 12.4437C12.5215 12.4347 12.3711 12.5286 12.2075 12.6637Z" fill="#F0585B"/>
<path d="M12.671 14.6636C12.5561 14.8058 12.5763 15.0317 12.754 15.1176C12.8182 15.1314 12.8683 15.2308 12.9224 15.2802C13.072 15.4167 13.0051 15.6003 13.1204 15.7495C13.1672 15.8101 13.3056 15.8091 13.3707 15.8276C13.4908 15.8617 13.4865 15.9398 13.514 16.0596C13.5461 16.1993 13.6215 16.2515 13.7457 16.2926C13.8437 16.325 13.8868 16.3834 13.9704 16.4438C14.0805 16.5234 14.3103 16.4706 14.4278 16.4352C14.5337 16.4032 14.6141 16.2316 14.6915 16.1539C14.8058 16.039 14.883 15.9395 15.0373 15.9758C15.1632 16.0055 15.3291 15.9619 15.4271 15.8688C15.5152 15.785 15.4599 15.5987 15.4904 15.4861C15.5279 15.3481 15.6868 15.2667 15.7754 15.1696C15.8592 15.0778 15.8121 15.001 15.7317 14.9333C15.6393 14.8554 15.6083 14.7299 15.6226 14.6078C15.6395 14.4639 15.6851 14.3209 15.6176 14.1826C15.5757 14.0968 15.4778 14.0637 15.4266 13.9834C15.3657 13.8881 15.4465 13.7765 15.4404 13.6718C15.432 13.5288 15.3496 13.5811 15.2441 13.5797C15.0574 13.5771 14.8993 13.4799 14.7953 13.316C14.7406 13.2298 14.6759 13.1162 14.5688 13.1041C14.4847 13.0945 14.4133 13.1743 14.3328 13.1929C14.1724 13.23 14.0309 13.1992 13.8734 13.1957C13.8021 13.1941 13.7518 13.3272 13.7211 13.3794C13.6427 13.5125 13.5683 13.6484 13.4818 13.7756C13.3742 13.9338 13.1001 13.8577 13.0078 14.078C12.9776 14.1501 12.9678 14.2339 12.9412 14.3081C12.8874 14.4586 12.7662 14.5459 12.671 14.6636Z" fill="#BA1E26"/>
<path d="M14.0764 6.16115C13.8849 6.32388 13.8326 6.60554 13.9139 7.06245C14.001 7.5757 14.1403 7.86362 14.2912 7.83858C14.4828 7.80728 14.5582 7.55692 14.5582 6.91224C14.5582 6.0923 14.4189 5.87323 14.0764 6.16115Z" fill="#EF7FA5"/>
<path d="M12.3348 7.14371C12.3116 7.16249 12.2942 7.30645 12.2942 7.4504C12.2942 7.76336 12.7934 8.84618 13.3391 9.72871C13.7222 10.3484 13.8383 10.4673 13.9311 10.3671C14.0414 10.2482 13.6293 8.19523 13.4261 7.84473C13.3391 7.69451 12.5728 7.0999 12.4683 7.0999C12.4161 7.0999 12.3522 7.11867 12.3348 7.14371Z" fill="#EF7FA5"/>
<path d="M15.6738 7.45681C15.3952 7.7635 14.8379 8.78373 14.7334 9.17179C14.6348 9.54108 14.6638 10.1357 14.7857 10.2984L14.8902 10.4424L15.0353 10.2859C15.1108 10.2045 15.3604 9.7664 15.5868 9.31575C15.8886 8.71488 16.0105 8.40193 16.0395 8.15782C16.0569 7.97005 16.1034 7.71343 16.1324 7.58199C16.173 7.40673 16.173 7.31285 16.1208 7.25026C16.0163 7.11882 15.9699 7.13759 15.6738 7.45681Z" fill="#EF7FA5"/>
<path d="M19.6908 10.0796C19.238 10.2736 18.8956 10.5929 18.7737 10.9308C18.6518 11.2438 18.2977 11.8196 17.9145 12.3078C17.5721 12.746 17.5546 12.8586 17.8565 12.8586C18.1583 12.8524 18.4776 12.6834 18.9246 12.2765C19.3367 11.8947 19.6792 11.369 20.0449 10.5303C20.3351 9.86681 20.2945 9.82299 19.6908 10.0796Z" fill="#EF7FA5"/>
<path d="M8.82428 10.1735C8.75462 10.2048 8.66755 10.2987 8.63852 10.3863C8.55145 10.6304 8.69077 10.9121 9.03905 11.225C9.20739 11.3752 9.40476 11.6319 9.48022 11.7883C9.65436 12.1639 10.3335 12.8586 10.5193 12.8586C10.9024 12.8586 10.8327 12.3517 10.3858 11.8322C10.229 11.6569 10.0433 11.3565 9.96202 11.1687C9.78207 10.7431 9.36412 10.2424 9.13193 10.1735C9.03325 10.1485 8.89974 10.1485 8.82428 10.1735Z" fill="#EF7FA5"/>
<path d="M19.8177 12.3895C19.7074 12.5084 19.6377 12.765 19.6958 12.8527C19.7886 13.0154 20.3981 12.8902 20.7058 12.6461C20.8103 12.5585 20.9322 12.5084 20.9786 12.5272C21.0251 12.546 21.0599 12.5272 21.0599 12.4896C21.0599 12.3895 20.9902 12.377 20.4156 12.3269C19.9976 12.2956 19.8989 12.3081 19.8177 12.3895Z" fill="#EF7FA5"/>
<path d="M7.84825 12.6203C7.90049 12.8957 8.02239 13.0209 8.35327 13.1398C8.70736 13.2713 9.00921 13.2463 9.03243 13.0898C9.10209 12.6955 8.8815 12.5202 8.23717 12.4576L7.80762 12.4201L7.84825 12.6203Z" fill="#EF7FA5"/>
<path d="M18.2383 13.3842C18.1861 13.5407 18.3776 13.8849 18.6621 14.1478C19.2948 14.7174 19.8056 15.1117 19.9217 15.1179C20.4383 15.1492 20.5312 14.9677 20.2758 14.4232C20.1133 14.0852 19.9507 13.96 19.5502 13.8912C19.2309 13.8348 19.1265 13.7785 18.8304 13.5031C18.5866 13.284 18.2964 13.2277 18.2383 13.3842Z" fill="#EF7FA5"/>
<path d="M9.30529 14.0043C8.70159 14.2358 8.33009 14.4612 8.0979 14.724C7.95858 14.8805 7.93536 14.9494 7.97019 15.1058C8.05726 15.5377 8.53325 15.5189 9.17759 15.0495C9.40397 14.8805 9.74065 14.5863 9.91479 14.3986C10.176 14.1044 10.2224 14.0293 10.1702 13.9354C10.0715 13.7727 9.87416 13.7852 9.30529 14.0043Z" fill="#EF7FA5"/>
<path d="M10.7283 17.8279C10.4903 17.9093 10.1652 18.0344 10.0143 18.1096C9.83434 18.1909 9.61376 18.241 9.40478 18.241C8.84172 18.241 8.48763 18.5289 8.42377 19.0484C8.35992 19.5679 8.66757 19.6806 9.32352 19.3739C9.53829 19.2737 9.81112 19.1736 9.93302 19.1548C10.0956 19.1235 10.2465 19.0171 10.4903 18.7542C10.676 18.5602 10.9431 18.3098 11.0824 18.2097C11.3494 18.0094 11.4307 17.8216 11.2971 17.734C11.2043 17.6652 11.2449 17.6589 10.7283 17.8279Z" fill="#EF7FA5"/>
<path d="M18.0132 17.973C17.7288 17.9855 17.4734 18.0168 17.4443 18.0481C17.4211 18.0731 17.7346 18.2734 18.1409 18.4862C18.5472 18.699 19.0116 18.9682 19.1683 19.0871C19.4238 19.2874 19.4818 19.3062 19.8707 19.3062C20.1029 19.3062 20.3351 19.2874 20.3874 19.2686C20.5151 19.2185 20.5035 18.9181 20.3699 18.7366C20.0623 18.311 19.238 17.9104 18.7388 17.9417C18.6285 17.9479 18.3034 17.9667 18.0132 17.973Z" fill="#EF7FA5"/>
<path d="M16.2881 18.7421C16.2068 18.7985 16.1952 18.8736 16.2242 19.2303C16.2533 19.5871 16.2358 19.706 16.1023 20.0378C15.9572 20.4071 15.9572 20.4571 15.992 21.227C16.0269 22.0219 16.0269 22.0282 16.2184 22.2284C16.4913 22.5289 16.8105 22.5038 16.973 22.1784C17.1298 21.8404 17.1008 21.2458 16.8221 19.3555C16.7409 18.786 16.5551 18.5794 16.2881 18.7421Z" fill="#EF7FA5"/>
<path d="M12.3647 18.9545C12.1673 19.1986 12.0628 19.6993 12.0628 20.4254C12.0628 20.6883 12.028 20.9699 11.9758 21.1014C11.8945 21.3079 11.8945 21.3705 11.9816 21.746C12.1093 22.3094 12.1964 22.4471 12.4285 22.422C12.5911 22.4032 12.6317 22.3532 12.8291 21.9338C13.009 21.5332 13.0439 21.4018 13.0439 21.0263C13.0497 20.4003 12.8987 19.161 12.7884 18.9357C12.6723 18.6854 12.5795 18.6916 12.3647 18.9545Z" fill="#EF7FA5"/>
<path d="M18.0405 20.1263C18.0405 20.3578 18.3714 20.9587 18.563 21.0714C18.8416 21.2404 18.9693 21.2216 18.9693 21.0025C18.9693 20.7772 18.4759 20.1638 18.2147 20.0637C18.0579 20.0073 18.0405 20.0136 18.0405 20.1263Z" fill="#EF7FA5"/>
<path d="M10.0938 20.7452C9.77457 21.2709 9.75136 21.4525 9.98355 21.5276C10.1287 21.5839 10.4828 21.2271 10.6743 20.8391C10.802 20.5824 10.802 20.5637 10.7091 20.4072C10.5408 20.1318 10.4189 20.2006 10.0938 20.7452Z" fill="#EF7FA5"/>
</svg>
