<svg xmlns="http://www.w3.org/2000/svg" width="56" height="56" fill="none"><path stroke="#FFEAEC" stroke-miterlimit="10" stroke-width="3" d="M51.263 42.77a5.94 5.94 0 0 1-.583 2.543 9.628 9.628 0 0 1-1.587 2.38c-1.143 1.26-2.403 2.17-3.826 2.754-1.4.583-2.917.886-4.55.886-2.38 0-4.924-.56-7.607-1.703s-5.367-2.683-8.027-4.62a67.074 67.074 0 0 1-7.653-6.533 66.28 66.28 0 0 1-6.51-7.63c-1.913-2.66-3.453-5.32-4.573-7.957-1.12-2.66-1.68-5.203-1.68-7.63 0-1.587.28-3.103.84-4.503.56-1.424 1.446-2.73 2.683-3.897 1.493-1.47 3.127-2.193 4.853-2.193.654 0 1.307.14 1.89.42.607.28 1.144.7 1.564 1.306l5.413 7.63c.42.584.723 1.12.933 1.634.21.49.327.98.327 1.423 0 .56-.163 1.12-.49 1.657-.303.536-.747 1.096-1.307 1.656L19.6 22.237c-.257.256-.373.56-.373.933 0 .187.023.35.07.537.07.186.14.326.186.466.42.77 1.144 1.774 2.17 2.987a79.81 79.81 0 0 0 3.384 3.687c1.26 1.236 2.473 2.38 3.71 3.43 1.213 1.026 2.216 1.726 3.01 2.146.116.047.256.117.42.187.186.07.373.093.583.093.397 0 .7-.14.957-.396l1.773-1.75c.583-.584 1.143-1.027 1.68-1.307.537-.327 1.073-.49 1.657-.49.443 0 .91.093 1.423.303s1.05.514 1.633.91l7.724 5.484c.606.42 1.026.91 1.283 1.493.233.583.373 1.167.373 1.82Z"/></svg>