<svg xmlns="http://www.w3.org/2000/svg" width="32" height="26" fill="none"><path fill="#E7E1FE" fill-rule="evenodd" d="M23.822 0c-3.386 0-6.137 2.657-6.137 5.934 0 3.274 2.75 5.933 6.137 5.933 5.818 0 2.447 10.304-4.891 11.377-.346.05-.662.214-.89.463-.23.25-.355.567-.356.896 0 .843.802 1.509 1.69 1.381C32.712 24.084 37.455.002 23.822.002V0ZM6.14 0C2.75 0 0 2.655 0 5.934c0 3.272 2.748 5.93 6.14 5.93 5.815 0 2.444 10.307-4.894 11.38-.346.05-.662.213-.89.462a1.33 1.33 0 0 0-.356.895c0 .843.802 1.509 1.688 1.381C15.029 24.082 19.772 0 6.139 0Z" clip-rule="evenodd" opacity=".3"/></svg>