<svg aria-hidden="true" style="position: absolute; width: 0; height: 0; overflow: hidden;" version="1.1" xmlns="http://www.w3.org/2000/svg" xmlns:xlink="http://www.w3.org/1999/xlink">
<defs>
<symbol id="icon-favorite" viewBox="0 0 32 32">
<path d="M21.76 4.256c-2.227 0-4.365 1.037-5.76 2.675-1.395-1.638-3.533-2.675-5.76-2.675-3.942 0-7.040 3.098-7.040 7.040 0 4.838 4.352 8.781 10.944 14.771l1.856 1.677 1.856-1.69c6.592-5.978 10.944-9.92 10.944-14.758 0-3.942-3.098-7.040-7.040-7.040zM16.128 24.16l-0.128 0.128-0.128-0.128c-6.093-5.517-10.112-9.165-10.112-12.864 0-2.56 1.92-4.48 4.48-4.48 1.971 0 3.891 1.267 4.57 3.021h2.394c0.666-1.754 2.586-3.021 4.557-3.021 2.56 0 4.48 1.92 4.48 4.48 0 3.699-4.019 7.347-10.112 12.864z"></path>
</symbol>


<symbol id="icon-arrowRight" viewBox="0 0 32 32">
<path stroke-linejoin="round" stroke-linecap="round" stroke-miterlimit="4" stroke-width="1.5" d="M12 6l10 10-10 10"></path>
</symbol>
<symbol id="icon-check" viewBox="0 0 32 32">
<path d="M30.545 15.127c0 8.033-6.512 14.545-14.545 14.545s-14.545-6.512-14.545-14.545c0-8.033 6.512-14.545 14.545-14.545s14.545 6.512 14.545 14.545z"></path>
<path stroke-linejoin="miter" stroke-linecap="round" stroke-miterlimit="4" stroke-width="2.9091" d="M21.818 12.218l-7.319 8.727-4.317-5.009"></path>
</symbol>
<symbol id="icon-cross" viewBox="0 0 32 32">
<path stroke-linejoin="miter" stroke-linecap="round" stroke-miterlimit="4" stroke-width="2" d="M11.286 20.714l9.428-9.428"></path>
<path stroke-linejoin="miter" stroke-linecap="round" stroke-miterlimit="4" stroke-width="2" d="M11.286 11.286l9.428 9.428"></path>
</symbol>
<symbol id="icon-bag" viewBox="0 0 32 32">
<path d="M28.784 27.734l-1.841-20.753c-0.035-0.406-0.374-0.722-0.786-0.722-0.003 0-0.007 0-0.010 0h-3.881c-0.007-3.451-2.815-6.259-6.266-6.259s-6.259 2.809-6.266 6.259h-3.882c-0.41 0-0.755 0.311-0.794 0.722l-1.842 20.753v0.073c0 2.312 2.126 4.193 4.736 4.193h16.096c2.61 0 4.736-1.881 4.736-4.193v-0.073zM16 1.59c2.577 0 4.67 2.093 4.677 4.67h-9.353c0.007-2.577 2.1-4.67 4.677-4.67zM24.048 30.403h-16.096c-1.722 0-3.127-1.146-3.146-2.57l1.775-19.985h3.153v2.789c0 0.437 0.358 0.795 0.795 0.795s0.795-0.358 0.795-0.795v-2.789h9.353v2.789c0 0.437 0.358 0.795 0.794 0.795 0.438 0 0.795-0.358 0.795-0.795v-2.789h3.153l1.775 19.991c-0.020 1.418-1.424 2.563-3.146 2.563z"></path>
<path d="M19.305 16.546l-4.69 4.69-1.914-1.914c-0.144-0.144-0.343-0.233-0.563-0.233-0.44 0-0.796 0.356-0.796 0.796 0 0.22 0.089 0.419 0.233 0.563l2.477 2.478c0.144 0.144 0.343 0.232 0.563 0.232s0.419-0.089 0.563-0.232l5.253-5.253c0.144-0.144 0.233-0.343 0.233-0.563s-0.089-0.419-0.233-0.563v0c-0.145-0.141-0.344-0.228-0.563-0.228s-0.418 0.087-0.563 0.228l0-0z"></path>
</symbol>
<symbol id="icon-cart" viewBox="0 0 32 32">
<path d="M0.64 1.957c0-0.349 0.139-0.684 0.386-0.931s0.582-0.386 0.931-0.386h0.98c1.668 0 2.668 1.122 3.239 2.164 0.381 0.695 0.657 1.501 0.873 2.231 0.058-0.005 0.117-0.007 0.176-0.007h21.941c1.457 0 2.51 1.394 2.11 2.796l-3.209 11.25c-0.288 1.009-0.896 1.897-1.734 2.529s-1.858 0.974-2.908 0.975h-10.442c-1.058 0-2.086-0.347-2.927-0.989s-1.448-1.541-1.728-2.561l-1.334-4.866-2.212-7.457-0.002-0.014c-0.274-0.995-0.53-1.927-0.913-2.623-0.367-0.676-0.662-0.797-0.927-0.797h-0.981c-0.349 0-0.684-0.139-0.931-0.386s-0.386-0.582-0.386-0.931zM9.546 13.525l1.318 4.808c0.263 0.951 1.129 1.613 2.117 1.613h10.442c0.477 0 0.941-0.156 1.322-0.443s0.658-0.691 0.788-1.149l3.049-10.692h-20.772l1.71 5.77 0.025 0.093z"></path>
<path d="M15.562 27.849c0 0.931-0.37 1.824-1.028 2.483s-1.552 1.028-2.483 1.028-1.824-0.37-2.483-1.028c-0.658-0.658-1.028-1.551-1.028-2.483s0.37-1.824 1.028-2.483 1.552-1.028 2.483-1.028c0.931 0 1.824 0.37 2.483 1.028s1.028 1.552 1.028 2.483zM12.929 27.849c0-0.233-0.092-0.456-0.257-0.621s-0.388-0.257-0.621-0.257c-0.233 0-0.456 0.092-0.621 0.257s-0.257 0.388-0.257 0.621c0 0.233 0.092 0.456 0.257 0.621s0.388 0.257 0.621 0.257c0.233 0 0.456-0.092 0.621-0.257s0.257-0.388 0.257-0.621z"></path>
<path d="M27.85 27.849c0 0.931-0.37 1.824-1.028 2.483s-1.552 1.028-2.483 1.028-1.824-0.37-2.483-1.028c-0.658-0.658-1.028-1.551-1.028-2.483s0.37-1.824 1.028-2.483 1.552-1.028 2.483-1.028c0.931 0 1.824 0.37 2.483 1.028s1.028 1.552 1.028 2.483zM25.217 27.849c0-0.233-0.093-0.456-0.257-0.621s-0.388-0.257-0.621-0.257c-0.233 0-0.456 0.092-0.621 0.257s-0.257 0.388-0.257 0.621c0 0.233 0.092 0.456 0.257 0.621s0.388 0.257 0.621 0.257c0.233 0 0.456-0.092 0.621-0.257s0.257-0.388 0.257-0.621z"></path>
</symbol>
<symbol id="icon-crossDark" viewBox="0 0 32 32">
<path stroke-linejoin="miter" stroke-linecap="round" stroke-miterlimit="4" stroke-width="1.5" d="M11.286 20.714l9.428-9.428"></path>
<path stroke-linejoin="miter" stroke-linecap="round" stroke-miterlimit="4" stroke-width="1.5" d="M11.286 11.286l9.428 9.428"></path>
</symbol>
<symbol id="icon-dollar" viewBox="0 0 32 32">
<path stroke-linejoin="round" stroke-linecap="round" stroke-miterlimit="4" stroke-width="1.7143" d="M11.563 19.106c0 1.72 1.32 3.107 2.96 3.107h3.347c1.427 0 2.587-1.213 2.587-2.707 0-1.627-0.707-2.2-1.76-2.573l-5.373-1.867c-1.053-0.373-1.76-0.947-1.76-2.573 0-1.493 1.16-2.707 2.587-2.707h3.347c1.64 0 2.96 1.387 2.96 3.107"></path>
<path stroke-linejoin="round" stroke-linecap="round" stroke-miterlimit="4" stroke-width="1.7143" d="M16 8v16"></path>
<path stroke-linejoin="round" stroke-linecap="round" stroke-miterlimit="4" stroke-width="1.7143" d="M16 29.333c7.364 0 13.333-5.97 13.333-13.333s-5.97-13.333-13.333-13.333c-7.364 0-13.333 5.97-13.333 13.333s5.97 13.333 13.333 13.333z"></path>
</symbol>
<symbol id="icon-cash" viewBox="0 0 32 32">
<path stroke-linejoin="round" stroke-linecap="round" stroke-miterlimit="4" stroke-width="1.7143" d="M11.562 19.106c0 1.72 1.32 3.107 2.96 3.107h3.347c1.427 0 2.587-1.213 2.587-2.707 0-1.626-0.707-2.2-1.76-2.573l-5.374-1.867c-1.053-0.373-1.76-0.946-1.76-2.573 0-1.493 1.16-2.707 2.587-2.707h3.347c1.64 0 2.96 1.387 2.96 3.107M16 8v16"></path>
<path stroke-linejoin="round" stroke-linecap="round" stroke-miterlimit="4" stroke-width="1.7143" d="M16 29.333c7.364 0 13.333-5.969 13.333-13.333s-5.969-13.333-13.333-13.333c-7.364 0-13.333 5.969-13.333 13.333s5.969 13.333 13.333 13.333z"></path>
</symbol>
<symbol id="icon-catalog" viewBox="0 0 32 32">
<path d="M12.069 6.362c-1.627-0.182-3.312-0.182-4.939 0-0.395 0.044-0.707 0.357-0.752 0.737-0.194 1.661-0.194 3.34 0 5.001 0.044 0.38 0.356 0.693 0.752 0.738 1.627 0.182 3.312 0.182 4.939 0 0.395-0.044 0.707-0.357 0.752-0.738 0.194-1.661 0.194-3.34 0-5.001-0.044-0.38-0.356-0.693-0.752-0.737zM6.917 4.454c1.769-0.198 3.596-0.198 5.365 0 1.268 0.142 2.295 1.14 2.445 2.423 0.212 1.81 0.212 3.638 0 5.447-0.15 1.283-1.177 2.281-2.445 2.423-1.769 0.198-3.596 0.198-5.365 0-1.268-0.142-2.295-1.14-2.445-2.423-0.212-1.81-0.212-3.638 0-5.447 0.15-1.282 1.177-2.281 2.445-2.423z"></path>
<path d="M12.069 19.162c-1.627-0.182-3.312-0.182-4.939 0-0.395 0.044-0.707 0.357-0.752 0.738-0.194 1.661-0.194 3.34 0 5.001 0.044 0.38 0.356 0.693 0.752 0.738 1.627 0.182 3.312 0.182 4.939 0 0.395-0.044 0.707-0.357 0.752-0.738 0.194-1.661 0.194-3.34 0-5.001-0.044-0.38-0.356-0.693-0.752-0.738zM6.917 17.254c1.769-0.198 3.596-0.198 5.365 0 1.268 0.142 2.295 1.14 2.445 2.423 0.212 1.81 0.212 3.638 0 5.447-0.15 1.283-1.177 2.281-2.445 2.423-1.769 0.198-3.596 0.198-5.365 0-1.268-0.142-2.295-1.14-2.445-2.423-0.212-1.81-0.212-3.637 0-5.447 0.15-1.282 1.177-2.281 2.445-2.423z"></path>
<path d="M24.869 6.362c-1.627-0.182-3.312-0.182-4.939 0-0.395 0.044-0.707 0.357-0.752 0.737-0.194 1.661-0.194 3.34 0 5.001 0.044 0.38 0.356 0.693 0.752 0.738 1.627 0.182 3.311 0.182 4.939 0 0.395-0.044 0.707-0.357 0.752-0.738 0.194-1.661 0.194-3.34 0-5.001-0.045-0.38-0.356-0.693-0.752-0.737zM19.717 4.454c1.769-0.198 3.596-0.198 5.365 0 1.268 0.142 2.295 1.14 2.445 2.423 0.212 1.81 0.212 3.638 0 5.447-0.15 1.283-1.177 2.281-2.445 2.423-1.769 0.198-3.596 0.198-5.365 0-1.268-0.142-2.295-1.14-2.445-2.423-0.212-1.81-0.212-3.638 0-5.447 0.15-1.282 1.177-2.281 2.445-2.423z"></path>
<path d="M24.869 19.162c-1.627-0.182-3.312-0.182-4.939 0-0.395 0.044-0.707 0.357-0.752 0.738-0.194 1.661-0.194 3.34 0 5.001 0.044 0.38 0.356 0.693 0.752 0.738 1.627 0.182 3.311 0.182 4.939 0 0.395-0.044 0.707-0.357 0.752-0.738 0.194-1.661 0.194-3.34 0-5.001-0.045-0.38-0.356-0.693-0.752-0.738zM19.717 17.254c1.769-0.198 3.596-0.198 5.365 0 1.268 0.142 2.295 1.14 2.445 2.423 0.212 1.81 0.212 3.638 0 5.447-0.15 1.283-1.177 2.281-2.445 2.423-1.769 0.198-3.596 0.198-5.365 0-1.268-0.142-2.295-1.14-2.445-2.423-0.212-1.81-0.212-3.637 0-5.447 0.15-1.282 1.177-2.281 2.445-2.423z"></path>
</symbol>
<symbol id="icon-heart" viewBox="0 0 32 32">
<path d="M23.2 1.32c-2.784 0-5.456 1.296-7.2 3.344-1.744-2.048-4.416-3.344-7.2-3.344-4.928 0-8.8 3.872-8.8 8.8 0 6.048 5.44 10.976 13.68 18.464l2.32 2.096 2.32-2.112c8.24-7.472 13.68-12.4 13.68-18.448 0-4.928-3.872-8.8-8.8-8.8zM16.16 26.2l-0.16 0.16-0.16-0.16c-7.616-6.896-12.64-11.456-12.64-16.080 0-3.2 2.4-5.6 5.6-5.6 2.464 0 4.864 1.584 5.712 3.776h2.992c0.832-2.192 3.232-3.776 5.696-3.776 3.2 0 5.6 2.4 5.6 5.6 0 4.624-5.024 9.184-12.64 16.080z"></path>
</symbol>
<symbol id="icon-plumFlower" viewBox="0 0 32 32">
<path d="M0 1.143h31.445v29.714h-31.445v-29.714z"></path>
</symbol>
<symbol id="icon-productCart" viewBox="0 0 32 32">
<path d="M0.842 2.141c0-0.717 0.581-1.299 1.299-1.299v0h0.967c1.647 0 2.634 1.107 3.197 2.136 0.377 0.687 0.648 1.482 0.862 2.203 0.057-0.005 0.115-0.008 0.172-0.008h21.652c1.438 0 2.477 1.376 2.083 2.76l-3.166 11.102c-0.587 2.012-2.415 3.457-4.581 3.458h-10.307c-2.182-0.001-4.022-1.468-4.586-3.47l-0.008-0.034-1.315-4.8-2.183-7.36-0.002-0.013c-0.271-0.984-0.524-1.903-0.901-2.589-0.362-0.667-0.653-0.787-0.916-0.787h-0.968c-0.717-0.002-1.297-0.583-1.297-1.3 0-0.001 0-0.001 0-0.002v0zM9.63 13.558l1.302 4.744c0.259 0.938 1.113 1.592 2.088 1.592h10.306c0 0 0 0 0 0 0.984 0 1.815-0.657 2.078-1.556l0.004-0.015 3.010-10.552h-20.499l1.688 5.694 0.024 0.093zM15.567 27.693c0 1.913-1.551 3.464-3.464 3.464s-3.464-1.551-3.464-3.464v0c0-1.913 1.551-3.464 3.464-3.464s3.464 1.551 3.464 3.464v0zM12.97 27.693c0-0.479-0.388-0.867-0.867-0.867s-0.867 0.388-0.867 0.867v0c0 0.479 0.388 0.867 0.867 0.867s0.867-0.388 0.867-0.867v0zM27.695 27.693c0 1.914-1.551 3.465-3.465 3.465s-3.465-1.551-3.465-3.465v0c0-1.914 1.551-3.465 3.465-3.465s3.465 1.551 3.465 3.465v0zM25.096 27.693c0-0.479-0.388-0.867-0.867-0.867s-0.867 0.388-0.867 0.867v0c0 0.479 0.388 0.867 0.867 0.867s0.867-0.388 0.867-0.867v0z"></path>
</symbol>
<symbol id="icon-heartFill" viewBox="0 0 32 32">
<path d="M23.2 1.32c-2.784 0-5.456 1.296-7.2 3.344-1.744-2.048-4.416-3.344-7.2-3.344-4.928 0-8.8 3.872-8.8 8.8 0 6.048 5.44 10.976 13.68 18.464l2.32 2.096 2.32-2.112c8.24-7.472 13.68-12.4 13.68-18.448 0-4.928-3.872-8.8-8.8-8.8z"></path>
</symbol>
<symbol id="icon-location" viewBox="0 0 32 32">
<path d="M16.381 10.667c-1.47 0-2.667 1.196-2.667 2.668 0 1.47 1.196 2.665 2.667 2.665s2.667-1.195 2.667-2.665c0-1.472-1.196-2.668-2.667-2.668zM16.381 18.286c-2.731 0-4.952-2.22-4.952-4.951 0-2.732 2.222-4.954 4.952-4.954s4.952 2.222 4.952 4.954c0 2.731-2.222 4.951-4.952 4.951z"></path>
<path d="M16.379 3.048c-5.672 0-10.286 4.658-10.286 10.382 0 7.282 8.57 14.377 10.286 14.755 1.716-0.379 10.286-7.474 10.286-14.755 0-5.723-4.614-10.382-10.286-10.382zM16.379 30.476c-2.734 0-12.571-8.46-12.571-17.047 0-6.985 5.64-12.667 12.571-12.667s12.571 5.682 12.571 12.667c0 8.587-9.838 17.047-12.571 17.047z"></path>
</symbol>
<symbol id="icon-quotes" viewBox="0 0 32 32">
<path d="M23.822 3c-3.386 0-6.137 2.657-6.137 5.934 0 3.274 2.75 5.933 6.137 5.933 5.818 0 2.447 10.304-4.891 11.377-0.346 0.050-0.662 0.214-0.89 0.463-0.23 0.25-0.355 0.567-0.356 0.896 0 0.843 0.802 1.509 1.69 1.381 13.337-1.9 18.080-25.982 4.447-25.982v-0.002zM6.14 3c-3.39 0-6.14 2.655-6.14 5.934 0 3.272 2.748 5.93 6.14 5.93 5.815 0 2.444 10.307-4.894 11.38-0.346 0.050-0.662 0.213-0.89 0.462-0.218 0.234-0.353 0.549-0.356 0.894v0.001c0 0.843 0.802 1.509 1.688 1.381 13.341-1.9 18.084-25.982 4.451-25.982z"></path>
</symbol>
<symbol id="icon-search" viewBox="0 0 32 32">
<path stroke-linejoin="round" stroke-linecap="round" stroke-miterlimit="4" stroke-width="2.2857" d="M28.579 14.882c0 7.565-6.132 13.697-13.697 13.697s-13.697-6.132-13.697-13.697c0-7.565 6.132-13.697 13.697-13.697s13.697 6.132 13.697 13.697z"></path>
<path stroke-linejoin="round" stroke-linecap="round" stroke-miterlimit="4" stroke-width="2.2857" d="M24.409 25.12l5.37 5.356"></path>
</symbol>
<symbol id="icon-phone" viewBox="0 0 32 32">
<path stroke-linejoin="miter" stroke-linecap="butt" stroke-miterlimit="10" stroke-width="1.7143" d="M29.293 24.44c-0.002 0.529-0.125 1.028-0.342 1.473l0.009-0.020c-0.248 0.521-0.551 0.969-0.911 1.364l0.004-0.004c-0.653 0.72-1.373 1.24-2.186 1.574-0.8 0.333-1.667 0.506-2.6 0.506-1.36 0-2.814-0.32-4.347-0.973s-3.067-1.533-4.587-2.64c-1.617-1.19-3.045-2.414-4.375-3.735l0.002 0.002c-1.316-1.324-2.536-2.747-3.647-4.256l-0.073-0.104c-1.093-1.52-1.973-3.040-2.613-4.547-0.64-1.52-0.96-2.973-0.96-4.36 0-0.907 0.16-1.773 0.48-2.573 0.32-0.814 0.826-1.56 1.533-2.227 0.853-0.84 1.787-1.253 2.773-1.253 0.374 0 0.747 0.080 1.080 0.24 0.347 0.16 0.654 0.4 0.894 0.746l3.093 4.36c0.24 0.334 0.413 0.64 0.533 0.934 0.12 0.28 0.187 0.56 0.187 0.813 0 0.32-0.093 0.64-0.28 0.947-0.173 0.306-0.427 0.626-0.747 0.946l-1.013 1.054c-0.147 0.146-0.213 0.32-0.213 0.533 0 0.107 0.013 0.2 0.040 0.307 0.040 0.106 0.080 0.186 0.106 0.266 0.24 0.44 0.654 1.014 1.24 1.707 0.659 0.763 1.29 1.449 1.942 2.115l-0.008-0.008c0.72 0.706 1.413 1.36 2.12 1.96 0.693 0.586 1.266 0.986 1.72 1.226 0.066 0.027 0.146 0.067 0.24 0.107 0.106 0.040 0.213 0.053 0.333 0.053 0.227 0 0.4-0.080 0.547-0.226l1.013-1c0.333-0.334 0.653-0.587 0.96-0.747 0.307-0.187 0.613-0.28 0.947-0.28 0.253 0 0.52 0.053 0.813 0.173s0.6 0.294 0.933 0.52l4.414 3.134c0.346 0.24 0.586 0.52 0.733 0.853 0.133 0.333 0.213 0.667 0.213 1.040z"></path>
</symbol>
<symbol id="icon-star" viewBox="0 0 32 32">
<path d="M16.165 1.536c0.042-0.080 0.124-0.134 0.219-0.134s0.177 0.054 0.218 0.133l0.001 0.001 4.529 8.847c0.036 0.069 0.102 0.118 0.181 0.13l0.001 0 9.812 1.575c0.118 0.020 0.206 0.121 0.206 0.243 0 0.067-0.027 0.129-0.071 0.173l0-0-7.013 7.040c-0.044 0.045-0.072 0.106-0.072 0.174 0 0.013 0.001 0.026 0.003 0.039l-0-0.001 1.536 9.822c0.002 0.011 0.003 0.023 0.003 0.036 0 0.136-0.11 0.246-0.246 0.246-0.041 0-0.079-0.010-0.112-0.027l0.001 0.001-8.869-4.495c-0.032-0.017-0.070-0.026-0.111-0.026s-0.079 0.010-0.112 0.027l0.001-0.001-8.862 4.495c-0.032 0.017-0.071 0.026-0.111 0.026-0.136 0-0.246-0.11-0.246-0.246 0-0.013 0.001-0.025 0.003-0.038l-0 0.001 1.534-9.822c0.002-0.012 0.003-0.026 0.003-0.040 0-0.067-0.027-0.127-0.070-0.172l0 0-7.015-7.040c-0.045-0.045-0.073-0.107-0.073-0.175 0-0.123 0.090-0.224 0.207-0.243l0.001-0 9.814-1.575c0.078-0.012 0.143-0.060 0.179-0.127l0.001-0.001 4.529-8.847z"></path>
</symbol>
<symbol id="icon-user" viewBox="0 0 32 32">
<path stroke-linejoin="miter" stroke-linecap="butt" stroke-miterlimit="10" stroke-width="2.56" d="M16 19.84c4.242 0 7.68-3.438 7.68-7.68s-3.438-7.68-7.68-7.68c-4.242 0-7.68 3.438-7.68 7.68s3.438 7.68 7.68 7.68z"></path>
<path stroke-linejoin="round" stroke-linecap="square" stroke-miterlimit="4" stroke-width="2.56" d="M4.36 26.56c1.18-2.043 2.876-3.74 4.919-4.92s4.361-1.801 6.721-1.801 4.677 0.621 6.721 1.801c2.043 1.18 3.74 2.877 4.92 4.92"></path>
</symbol>
<symbol id="icon-track" viewBox="0 0 32 32">
<path stroke-linejoin="round" stroke-linecap="round" stroke-miterlimit="4" stroke-width="1.7143" d="M16 18.667h1.333c1.471-0.004 2.663-1.196 2.667-2.666v-13.334h-12c-1.99 0-3.724 1.091-4.639 2.707l-0.014 0.026"></path>
<path stroke-linejoin="round" stroke-linecap="round" stroke-miterlimit="4" stroke-width="1.7143" d="M2.667 22.667c0 2.213 1.786 4 4 4h1.333c0.004-1.471 1.196-2.663 2.666-2.667h0c1.471 0.005 2.662 1.196 2.666 2.666v0h5.334c0.004-1.471 1.195-2.662 2.666-2.667h0c1.471 0.004 2.663 1.196 2.667 2.666v0h1.333c2.214 0 4-1.787 4-4v-4h-4c-0.736-0.002-1.331-0.598-1.333-1.334v-4c0.002-0.735 0.598-1.331 1.333-1.333h1.72l-2.28-3.987c-0.472-0.808-1.333-1.343-2.319-1.346h-2.454v9.333c-0.004 1.471-1.196 2.663-2.666 2.667h-1.334"></path>
<path stroke-linejoin="round" stroke-linecap="round" stroke-miterlimit="4" stroke-width="1.7143" d="M10.667 29.333c0.012 0 0.025 0 0.039 0 1.473 0 2.667-1.194 2.667-2.667s-1.194-2.667-2.667-2.667c-0.014 0-0.027 0-0.041 0l0.002-0c-1.456 0.022-2.628 1.207-2.628 2.667s1.172 2.645 2.626 2.667l0.002 0zM21.333 29.333c0.012 0 0.025 0 0.039 0 1.473 0 2.667-1.194 2.667-2.667s-1.194-2.667-2.667-2.667c-0.014 0-0.027 0-0.041 0l0.002-0c-1.456 0.022-2.628 1.207-2.628 2.667s1.172 2.645 2.626 2.667l0.002 0z"></path>
<path stroke-linejoin="round" stroke-linecap="round" stroke-miterlimit="4" stroke-width="0.8571" d="M29.333 16v2.667h-4c-0.736-0.002-1.331-0.598-1.333-1.334v-4c0.002-0.735 0.598-1.331 1.333-1.333h1.72l2.28 4z"></path>
<path stroke-linejoin="round" stroke-linecap="round" stroke-miterlimit="4" stroke-width="1.7143" d="M2.667 10.667h8M2.667 14.667h5.333M2.667 18.667h2.666"></path>
</symbol>
<symbol id="icon-starBig" viewBox="0 0 32 32">
<path d="M16.55 23.842l6.304 3.994c0.808 0.512 1.808-0.248 1.568-1.189l-1.821-7.165c-0.022-0.082-0.035-0.177-0.035-0.274 0-0.335 0.15-0.634 0.387-0.835l0.002-0.001 5.654-4.704c0.742-0.619 0.36-1.853-0.595-1.914l-7.382-0.48c-0.413-0.030-0.758-0.296-0.903-0.662l-0.002-0.007-2.755-6.934c-0.153-0.395-0.531-0.67-0.972-0.67s-0.819 0.275-0.97 0.663l-0.002 0.007-2.752 6.934c-0.148 0.373-0.493 0.639-0.904 0.669l-0.003 0-7.382 0.48c-0.955 0.061-1.339 1.294-0.595 1.912l5.653 4.706c0.239 0.202 0.39 0.503 0.39 0.838 0 0.097-0.013 0.191-0.036 0.28l0.002-0.008-1.688 6.645c-0.288 1.128 0.912 2.040 1.88 1.427l5.859-3.712c0.156-0.101 0.347-0.161 0.551-0.161s0.395 0.060 0.555 0.163l-0.004-0.002z"></path>
</symbol>
<symbol id="icon-eye_off" viewBox="0 0 32 32">
<path stroke-linejoin="round" stroke-linecap="round" stroke-miterlimit="4" stroke-width="2.4" d="M23.92 23.92c-2.175 1.671-4.923 2.696-7.908 2.747l-0.012 0c-9.333 0-14.667-10.667-14.667-10.667 1.713-3.152 3.977-5.791 6.689-7.877l0.058-0.043M13.2 5.653c0.833-0.203 1.788-0.32 2.771-0.32 0.010 0 0.020 0 0.030 0h-0.002c9.333 0 14.667 10.667 14.667 10.667-0.871 1.615-1.826 3.008-2.91 4.29l0.030-0.036M18.827 18.827c-0.732 0.786-1.773 1.277-2.929 1.277-2.208 0-3.997-1.79-3.997-3.997 0-0.027 0-0.054 0.001-0.081l-0 0.004c0.020-1.128 0.505-2.139 1.27-2.854l0.002-0.002M1.333 1.333l29.333 29.333"></path>
</symbol>
<symbol id="icon-eye" viewBox="0 0 32 32">
<path stroke-linejoin="round" stroke-linecap="round" stroke-miterlimit="4" stroke-width="2.4" d="M1.333 16s5.333-10.667 14.667-10.667 14.667 10.667 14.667 10.667-5.333 10.667-14.667 10.667-14.667-10.667-14.667-10.667z"></path>
<path stroke-linejoin="round" stroke-linecap="round" stroke-miterlimit="4" stroke-width="2.4" d="M16 20c2.209 0 4-1.791 4-4s-1.791-4-4-4v0c-2.209 0-4 1.791-4 4s1.791 4 4 4v0z"></path>
</symbol>

</defs>
</svg>
