<svg width="33" height="32" viewBox="0 0 33 32" fill="none" xmlns="http://www.w3.org/2000/svg">
    <path
        d="M1.83325 15.9999C1.83325 17.926 2.21262 19.8332 2.94969 21.6126C3.68675 23.392 4.76709 25.0089 6.12902 26.3708C7.49094 27.7327 9.10779 28.8131 10.8872 29.5502C12.6667 30.2872 14.5739 30.6666 16.4999 30.6666C18.426 30.6666 20.3332 30.2872 22.1126 29.5502C23.892 28.8131 25.5089 27.7327 26.8708 26.3708C28.2327 25.0089 29.3131 23.392 30.0501 21.6126C30.7872 19.8332 31.1666 17.926 31.1666 15.9999C31.1666 14.0739 30.7872 12.1667 30.0501 10.3872C29.3131 8.60779 28.2327 6.99094 26.8708 5.62902C25.5089 4.26709 23.892 3.18675 22.1126 2.44969C20.3332 1.71262 18.426 1.33325 16.4999 1.33325C14.5739 1.33325 12.6667 1.71262 10.8872 2.44969C9.10779 3.18675 7.49094 4.26709 6.12902 5.62902C4.76709 6.99094 3.68675 8.60779 2.94969 10.3872C2.21262 12.1667 1.83325 14.0739 1.83325 15.9999Z"
        stroke="currentColor" stroke-width="1.5" stroke-linecap="round" stroke-linejoin="round" />
    <path d="M22.9348 8.51709L21.7035 24.5247L14.9389 17.5829L6.92725 15.9052L22.9348 8.51709Z"
        stroke="currentColor" stroke-width="1.5" stroke-linecap="round" stroke-linejoin="round" />
    <path d="M11.9526 16.9534L13.1565 23.9036L17.5626 20.2534" stroke="currentColor" stroke-width="1.5"
        stroke-linecap="round" stroke-linejoin="round" />
    <path d="M14.9319 17.5492L17.4986 15.4958" stroke="currentColor" stroke-width="1.5"
        stroke-linecap="round" stroke-linejoin="round" />
</svg>
    