<svg xmlns="http://www.w3.org/2000/svg" width="56" height="56" fill="none"><path stroke="#FFEAEC" stroke-linecap="round" stroke-linejoin="round" stroke-width="3" d="M28 32.667h2.333A4.68 4.68 0 0 0 35 28V4.667H14A9.324 9.324 0 0 0 5.857 9.45"/><path stroke="#FFEAEC" stroke-linecap="round" stroke-linejoin="round" stroke-width="3" d="M4.667 39.667c0 3.873 3.126 7 7 7H14A4.68 4.68 0 0 1 18.667 42a4.68 4.68 0 0 1 4.666 4.667h9.334A4.68 4.68 0 0 1 37.333 42 4.68 4.68 0 0 1 42 46.667h2.333c3.874 0 7-3.127 7-7v-7h-7A2.34 2.34 0 0 1 42 30.333v-7A2.34 2.34 0 0 1 44.333 21h3.01l-3.99-6.977a4.705 4.705 0 0 0-4.06-2.356H35V28a4.68 4.68 0 0 1-4.667 4.667H28"/><path stroke="#FFEAEC" stroke-linecap="round" stroke-linejoin="round" stroke-width="3" d="M18.667 51.333a4.667 4.667 0 1 0 0-9.333 4.667 4.667 0 0 0 0 9.333ZM37.333 51.333a4.667 4.667 0 1 0 0-9.333 4.667 4.667 0 0 0 0 9.333Z"/><path stroke="#FFEAEC" stroke-linecap="round" stroke-linejoin="round" stroke-width="1.5" d="M51.333 28v4.667h-7A2.34 2.34 0 0 1 42 30.333v-7A2.34 2.34 0 0 1 44.333 21h3.01l3.99 7Z"/><path stroke="#FFEAEC" stroke-linecap="round" stroke-linejoin="round" stroke-width="3" d="M4.667 18.667h14M4.667 25.667H14M4.667 32.667h4.666"/></svg>