<svg xmlns="http://www.w3.org/2000/svg" width="19" height="18" fill="none"><path fill="#fff" d="M.5.771A.771.771 0 0 1 1.271 0h.574c.978 0 1.564.657 1.898 1.268.224.408.385.88.512 1.308.034-.003.068-.005.102-.005h12.856c.854 0 1.471.817 1.237 1.639l-1.88 6.592a2.829 2.829 0 0 1-2.72 2.053H7.73a2.83 2.83 0 0 1-2.728-2.08l-.781-2.85-1.296-4.37-.001-.008c-.161-.584-.311-1.13-.535-1.537-.215-.396-.388-.467-.544-.467h-.575A.772.772 0 0 1 .5.77ZM5.718 7.55l.773 2.817c.154.557.661.945 1.24.945h6.119a1.285 1.285 0 0 0 1.236-.933l1.787-6.265H4.702l1.002 3.381.014.055ZM9.243 15.943a2.057 2.057 0 1 1-4.114 0 2.057 2.057 0 0 1 4.114 0Zm-1.542 0a.514.514 0 1 0-1.03 0 .514.514 0 0 0 1.03 0ZM16.444 15.943a2.057 2.057 0 1 1-4.115 0 2.057 2.057 0 0 1 4.115 0Zm-1.543 0a.515.515 0 1 0-1.03 0 .515.515 0 0 0 1.03 0Z"/></svg>