<svg xmlns="http://www.w3.org/2000/svg" xmlns:xlink="http://www.w3.org/1999/xlink" version="1.1" width="256" height="256" viewBox="0 0 256 256" xml:space="preserve">

<defs>
</defs>
<g style="stroke: none; stroke-width: 0; stroke-dasharray: none; stroke-linecap: butt; stroke-linejoin: miter; stroke-miterlimit: 10; fill: none; fill-rule: nonzero; opacity: 1;" transform="translate(1.4065934065934016 1.4065934065934016) scale(2.81 2.81)" >
	<path d="M 22.875 45.621 h 11.529 c 1.322 0 2.394 1.072 2.394 2.394 h 1.952 c 1.322 0 2.394 1.072 2.394 2.394 c 0 1.322 -1.072 2.394 -2.394 2.394 H 27.22 c -1.322 0 -2.394 -1.072 -2.394 -2.394 h -1.952 c -1.322 0 -2.394 -1.072 -2.394 -2.394 C 20.481 46.693 21.553 45.621 22.875 45.621 z" style="stroke: none; stroke-width: 1; stroke-dasharray: none; stroke-linecap: butt; stroke-linejoin: miter; stroke-miterlimit: 10; fill: rgb(255,215,209); fill-rule: nonzero; opacity: 1;" transform=" matrix(1 0 0 1 0 0) " stroke-linecap="round" />
	<path d="M 38.749 53.803 H 27.221 c -1.523 0 -2.816 -1.009 -3.244 -2.394 h -1.103 c -1.871 0 -3.394 -1.522 -3.394 -3.395 c 0 -1.871 1.522 -3.393 3.394 -3.393 h 11.529 c 1.523 0 2.815 1.009 3.243 2.393 h 1.103 c 1.871 0 3.394 1.522 3.394 3.395 C 42.143 52.28 40.62 53.803 38.749 53.803 z M 22.875 46.622 c -0.769 0 -1.394 0.624 -1.394 1.393 s 0.625 1.395 1.394 1.395 h 2.952 v 1 c 0 0.769 0.625 1.394 1.394 1.394 h 11.528 c 0.769 0 1.394 -0.625 1.394 -1.394 s -0.625 -1.395 -1.394 -1.395 h -2.952 v -1 c 0 -0.769 -0.625 -1.393 -1.394 -1.393 H 22.875 z" style="stroke: none; stroke-width: 1; stroke-dasharray: none; stroke-linecap: butt; stroke-linejoin: miter; stroke-miterlimit: 10; fill: rgb(29,29,27); fill-rule: nonzero; opacity: 1;" transform=" matrix(1 0 0 1 0 0) " stroke-linecap="round" />
	<path d="M 53.155 36.901 c -1.679 8.365 -7.235 11.259 -8.732 17.652 c -1.5 -6.807 -8.92 -13.845 -11.343 -18.575 l -3.141 1.541 c 19.336 24.75 0 30.68 1.805 44.601 h 23.023 c -1.904 -2.36 -3.758 -3.972 -6.265 -10.055 c -3.815 -9.436 5.692 -23.166 7.734 -34.547 L 53.155 36.901 z" style="stroke: none; stroke-width: 1; stroke-dasharray: none; stroke-linecap: butt; stroke-linejoin: miter; stroke-miterlimit: 10; fill: rgb(243,181,137); fill-rule: nonzero; opacity: 1;" transform=" matrix(1 0 0 1 0 0) " stroke-linecap="round" />
	<path d="M 54.767 83.121 H 31.744 c -0.502 0 -0.927 -0.373 -0.992 -0.871 c -0.659 -5.08 1.35 -9.193 3.292 -13.172 c 3.646 -7.467 7.416 -15.188 -4.894 -30.943 c -0.186 -0.237 -0.254 -0.546 -0.187 -0.839 c 0.067 -0.294 0.264 -0.542 0.534 -0.674 l 3.141 -1.542 c 0.487 -0.242 1.081 -0.045 1.331 0.441 c 0.834 1.629 2.357 3.633 3.969 5.755 c 2.379 3.132 5.008 6.592 6.512 10.148 c 0.81 -1.76 1.884 -3.295 3 -4.888 c 1.896 -2.706 3.854 -5.503 4.724 -9.833 c 0.109 -0.542 0.636 -0.894 1.177 -0.784 l 3.081 0.618 c 0.534 0.107 0.884 0.622 0.788 1.157 c -0.752 4.19 -2.499 8.706 -4.188 13.073 c -2.899 7.496 -5.897 15.248 -3.604 20.922 c 2.052 4.976 3.655 6.872 5.205 8.706 c 0.305 0.36 0.607 0.719 0.911 1.096 c 0.242 0.3 0.29 0.712 0.124 1.06 S 55.151 83.121 54.767 83.121 z M 32.651 81.121 h 19.978 c -1.505 -1.803 -3.087 -3.909 -5.052 -8.674 c -2.592 -6.413 0.551 -14.54 3.59 -22.399 c 1.524 -3.939 3.096 -8.002 3.896 -11.744 l -1.146 -0.23 c -1.037 4.199 -3.043 7.063 -4.827 9.61 c -1.569 2.241 -3.052 4.357 -3.693 7.097 c -0.106 0.453 -0.509 0.772 -0.974 0.772 c -0.002 0 -0.004 0 -0.006 0 c -0.467 -0.003 -0.87 -0.329 -0.97 -0.785 c -0.911 -4.136 -4.199 -8.464 -7.1 -12.282 c -1.406 -1.85 -2.746 -3.614 -3.68 -5.192 l -1.19 0.584 c 12.165 16.105 8.025 24.581 4.366 32.076 C 34.07 73.585 32.39 77.026 32.651 81.121 z" style="stroke: none; stroke-width: 1; stroke-dasharray: none; stroke-linecap: butt; stroke-linejoin: miter; stroke-miterlimit: 10; fill: rgb(29,29,27); fill-rule: nonzero; opacity: 1;" transform=" matrix(1 0 0 1 0 0) " stroke-linecap="round" />
	<path d="M 78.944 14.668 h -9.382 c 0 -3.774 -3.06 -6.834 -6.834 -6.834 h -1.002 C 61.727 4.06 58.667 1 54.893 1 h -9.872 c -3.774 0 -6.834 3.06 -6.834 6.834 H 24.496 c -3.774 0 -6.834 3.06 -6.834 6.834 h -6.606 c -3.774 0 -6.834 3.06 -6.834 6.834 c 0 3.774 3.06 6.834 6.834 6.834 h 12.771 c 0.46 3.328 3.308 5.893 6.762 5.893 H 44.28 c 0 3.774 3.06 6.834 6.834 6.834 h 9.872 c 3.774 0 6.834 -3.06 6.834 -6.834 h 1.002 c 3.454 0 6.302 -2.565 6.762 -5.893 h 3.361 c 3.774 0 6.834 -3.06 6.834 -6.834 C 85.778 17.728 82.718 14.668 78.944 14.668 z" style="stroke: none; stroke-width: 1; stroke-dasharray: none; stroke-linecap: butt; stroke-linejoin: miter; stroke-miterlimit: 10; fill: rgb(255,215,209); fill-rule: nonzero; opacity: 1;" transform=" matrix(1 0 0 1 0 0) " stroke-linecap="round" />
	<path d="M 60.986 42.063 h -9.872 c -3.98 0 -7.278 -2.985 -7.771 -6.834 H 30.589 c -3.591 0 -6.709 -2.479 -7.583 -5.893 h -11.95 c -4.32 0 -7.834 -3.514 -7.834 -7.834 s 3.514 -7.834 7.834 -7.834 h 5.67 c 0.493 -3.849 3.79 -6.834 7.77 -6.834 H 37.25 C 37.743 2.985 41.04 0 45.021 0 h 9.872 c 3.98 0 7.277 2.985 7.771 6.834 h 0.065 c 3.98 0 7.277 2.985 7.771 6.834 h 8.445 c 4.319 0 7.833 3.514 7.833 7.834 s -3.514 7.834 -7.833 7.834 h -2.54 c -0.873 3.414 -3.991 5.893 -7.583 5.893 h -0.064 C 68.264 39.078 64.967 42.063 60.986 42.063 z M 11.056 15.668 c -3.217 0 -5.834 2.617 -5.834 5.834 s 2.617 5.834 5.834 5.834 h 13.643 l 0.119 0.863 c 0.396 2.867 2.877 5.03 5.771 5.03 H 45.28 v 1 c 0 3.217 2.617 5.834 5.834 5.834 h 9.872 c 3.217 0 5.834 -2.617 5.834 -5.834 v -1 h 2.001 c 2.895 0 5.376 -2.162 5.771 -5.03 l 0.119 -0.863 h 4.232 c 3.217 0 5.833 -2.617 5.833 -5.834 s -2.616 -5.834 -5.833 -5.834 H 68.563 v -1 c 0 -3.217 -2.617 -5.834 -5.834 -5.834 h -2.002 v -1 C 60.727 4.617 58.109 2 54.893 2 h -9.872 c -3.217 0 -5.834 2.617 -5.834 5.834 v 1 H 24.496 c -3.217 0 -5.833 2.617 -5.833 5.834 v 1 H 11.056 z" style="stroke: none; stroke-width: 1; stroke-dasharray: none; stroke-linecap: butt; stroke-linejoin: miter; stroke-miterlimit: 10; fill: rgb(29,29,27); fill-rule: nonzero; opacity: 1;" transform=" matrix(1 0 0 1 0 0) " stroke-linecap="round" />
	<path d="M 72.505 37.809 H 55.71 c -1.926 0 -3.487 1.561 -3.487 3.487 h -2.844 c -1.926 0 -3.487 1.561 -3.487 3.487 c 0 1.926 1.561 3.487 3.487 3.487 h 16.796 c 1.926 0 3.487 -1.561 3.487 -3.487 h 2.844 c 1.926 0 3.487 -1.561 3.487 -3.487 S 74.431 37.809 72.505 37.809 z" style="stroke: none; stroke-width: 1; stroke-dasharray: none; stroke-linecap: butt; stroke-linejoin: miter; stroke-miterlimit: 10; fill: rgb(255,215,209); fill-rule: nonzero; opacity: 1;" transform=" matrix(1 0 0 1 0 0) " stroke-linecap="round" />
	<path d="M 66.174 49.271 H 49.378 c -2.474 0 -4.487 -2.013 -4.487 -4.487 s 2.013 -4.487 4.487 -4.487 h 1.957 c 0.456 -1.995 2.244 -3.487 4.375 -3.487 h 16.795 c 2.475 0 4.487 2.013 4.487 4.487 s -2.013 4.487 -4.487 4.487 h -1.956 C 70.093 47.778 68.305 49.271 66.174 49.271 z M 49.378 42.296 c -1.371 0 -2.486 1.116 -2.486 2.487 s 1.115 2.487 2.486 2.487 h 16.796 c 1.371 0 2.487 -1.115 2.487 -2.487 v -1 h 3.844 c 1.371 0 2.487 -1.116 2.487 -2.487 s -1.116 -2.487 -2.487 -2.487 H 55.71 c -1.371 0 -2.487 1.116 -2.487 2.487 v 1 H 49.378 z" style="stroke: none; stroke-width: 1; stroke-dasharray: none; stroke-linecap: butt; stroke-linejoin: miter; stroke-miterlimit: 10; fill: rgb(29,29,27); fill-rule: nonzero; opacity: 1;" transform=" matrix(1 0 0 1 0 0) " stroke-linecap="round" />
	<path d="M 42.199 26.905 h -6.361 c 0 -2.559 -2.075 -4.634 -4.634 -4.634 H 19.972 c -2.559 0 -4.634 2.075 -4.634 4.634 h -4.479 c -2.559 0 -4.634 2.075 -4.634 4.634 c 0 2.559 2.075 4.634 4.634 4.634 h 9.085 c 0 2.559 2.075 4.634 4.634 4.634 H 35.81 c 2.559 0 4.634 -2.075 4.634 -4.634 h 1.755 c 2.559 0 4.634 -2.075 4.634 -4.634 C 46.832 28.98 44.758 26.905 42.199 26.905 z" style="stroke: none; stroke-width: 1; stroke-dasharray: none; stroke-linecap: butt; stroke-linejoin: miter; stroke-miterlimit: 10; fill: rgb(255,215,209); fill-rule: nonzero; opacity: 1;" transform=" matrix(1 0 0 1 0 0) " stroke-linecap="round" />
	<path d="M 35.81 41.806 H 24.578 c -2.766 0 -5.072 -2.002 -5.545 -4.634 h -8.174 c -3.106 0 -5.634 -2.527 -5.634 -5.634 s 2.527 -5.633 5.634 -5.633 h 3.568 c 0.473 -2.631 2.779 -4.634 5.545 -4.634 h 11.232 c 2.765 0 5.071 2.002 5.544 4.634 h 5.45 c 3.106 0 5.633 2.527 5.633 5.633 s -2.527 5.634 -5.633 5.634 h -0.844 C 40.882 39.804 38.576 41.806 35.81 41.806 z M 10.859 27.905 c -2.004 0 -3.634 1.63 -3.634 3.633 c 0 2.004 1.63 3.634 3.634 3.634 h 10.085 v 1 c 0 2.004 1.63 3.634 3.634 3.634 H 35.81 c 2.004 0 3.634 -1.63 3.634 -3.634 v -1 h 2.755 c 2.003 0 3.633 -1.63 3.633 -3.634 c 0 -2.003 -1.63 -3.633 -3.633 -3.633 h -7.361 v -1 c 0 -2.004 -1.63 -3.634 -3.633 -3.634 H 19.972 c -2.004 0 -3.634 1.63 -3.634 3.634 v 1 H 10.859 z" style="stroke: none; stroke-width: 1; stroke-dasharray: none; stroke-linecap: butt; stroke-linejoin: miter; stroke-miterlimit: 10; fill: rgb(29,29,27); fill-rule: nonzero; opacity: 1;" transform=" matrix(1 0 0 1 0 0) " stroke-linecap="round" />
	<path d="M 83.167 89 H 6.833 c -2.093 0 -3.79 -1.697 -3.79 -3.79 v 0 c 0 -2.093 1.697 -3.79 3.79 -3.79 h 76.334 c 2.093 0 3.79 1.697 3.79 3.79 v 0 C 86.957 87.303 85.26 89 83.167 89 z" style="stroke: none; stroke-width: 1; stroke-dasharray: none; stroke-linecap: butt; stroke-linejoin: miter; stroke-miterlimit: 10; fill: rgb(177,223,99); fill-rule: nonzero; opacity: 1;" transform=" matrix(1 0 0 1 0 0) " stroke-linecap="round" />
	<path d="M 83.167 90 H 6.833 c -2.641 0 -4.79 -2.148 -4.79 -4.79 c 0 -2.641 2.149 -4.789 4.79 -4.789 h 76.334 c 2.642 0 4.79 2.148 4.79 4.789 C 87.957 87.852 85.809 90 83.167 90 z M 6.833 82.421 c -1.539 0 -2.79 1.251 -2.79 2.789 S 5.294 88 6.833 88 h 76.334 c 1.538 0 2.79 -1.252 2.79 -2.79 s -1.252 -2.789 -2.79 -2.789 H 6.833 z" style="stroke: none; stroke-width: 1; stroke-dasharray: none; stroke-linecap: butt; stroke-linejoin: miter; stroke-miterlimit: 10; fill: rgb(29,29,27); fill-rule: nonzero; opacity: 1;" transform=" matrix(1 0 0 1 0 0) " stroke-linecap="round" />
</g>
</svg>